<svg width="518" height="212" viewBox="0 0 518 212" fill="none" xmlns="http://www.w3.org/2000/svg">
<g filter="url(#filter0_g_1_96)">
<path d="M20.0629 164.941V112.31H40.3149V164.941C40.3149 170.122 41.924 173.89 45.1424 176.244C48.3607 178.521 53.5807 179.659 60.8023 179.659C67.9454 179.659 73.1654 178.482 76.4622 176.127C79.8376 173.772 81.5252 170.043 81.5252 164.941V112.31H101.777V164.941C101.777 175.695 98.4018 183.623 91.6512 188.725C84.979 193.828 74.6961 196.379 60.8023 196.379C46.9085 196.379 36.6256 193.828 29.9534 188.725C23.3598 183.623 20.0629 175.695 20.0629 164.941Z" fill="#E22A0A"/>
<path d="M469.345 99.0691H449.093V33.6035H418.48V17.0016H499.841V33.6035H469.345V99.0691Z" fill="#E22A0A"/>
<path d="M327.186 69.6331V17.0016H347.438V69.6331C347.438 74.8138 349.047 78.5816 352.265 80.9365C355.484 83.2129 360.704 84.3511 367.925 84.3511C375.068 84.3511 380.288 83.1736 383.585 80.8188C386.96 78.4639 388.648 74.7353 388.648 69.6331V17.0016H408.9V69.6331C408.9 80.387 405.525 88.3151 398.774 93.4174C392.102 98.5196 381.819 101.071 367.925 101.071C354.031 101.071 343.748 98.5196 337.076 93.4174C330.483 88.3151 327.186 80.387 327.186 69.6331Z" fill="#E22A0A"/>
<path d="M263.595 101.071C246.09 101.071 233.139 97.5385 224.739 90.4738C216.34 83.4092 212.141 72.459 212.141 57.6233C212.141 43.1015 216.34 32.3868 224.739 25.4792C233.139 18.4931 246.09 15 263.595 15C281.178 15 294.169 18.4538 302.568 25.3615C310.967 32.2691 315.167 43.023 315.167 57.6233C315.167 72.5375 310.967 83.5269 302.568 90.5916C294.248 97.5777 281.257 101.071 263.595 101.071ZM263.595 84.3511C274.741 84.3511 282.748 82.3102 287.615 78.2285C292.481 74.0682 294.915 67.1998 294.915 57.6233C294.915 48.2038 292.481 41.5316 287.615 37.6068C282.826 33.6035 274.82 31.6019 263.595 31.6019C252.37 31.6019 244.363 33.6035 239.575 37.6068C234.787 41.6101 232.393 48.2823 232.393 57.6233C232.393 67.1998 234.826 74.0682 239.693 78.2285C244.56 82.3102 252.527 84.3511 263.595 84.3511Z" fill="#E22A0A"/>
<path d="M187.668 54.0909V56.5635C192.299 57.741 195.988 60.0566 198.736 63.5104C201.483 66.8857 202.857 71.0068 202.857 75.8735C202.857 83.9586 200.031 89.8458 194.379 93.5351C188.806 97.2244 179.897 99.0691 167.651 99.0691H121.613V17.0016H167.18C177.463 17.0016 185.274 18.7285 190.611 22.1823C196.027 25.5576 198.736 30.5814 198.736 37.2535C198.736 45.3386 195.046 50.9511 187.668 54.0909ZM141.748 32.5438V49.9699H165.767C174.245 49.9699 178.484 46.987 178.484 41.0213C178.484 35.3696 173.892 32.5438 164.708 32.5438H141.748ZM141.748 64.3346V83.6446H166.592C177.188 83.6446 182.487 80.387 182.487 73.8719C182.487 67.5137 177.11 64.3346 166.356 64.3346H141.748Z" fill="#E22A0A"/>
<path d="M154.687 196.379C127.998 196.379 114.143 186.645 113.123 167.178H132.197C132.511 171.731 134.435 174.988 137.967 176.951C139.67 177.897 141.893 178.615 144.636 179.105C147.582 179.631 151.129 179.894 155.275 179.894C158.651 179.894 469.495 179.674 472.006 179.231C479.306 177.946 482.956 174.791 482.956 169.769C482.956 164.98 479.306 162.154 472.006 161.291L140.322 158.347C131.766 157.405 125.525 155.09 121.6 151.4C117.676 147.633 115.713 142.413 115.713 135.741C115.713 127.498 118.971 121.219 125.486 116.902C130.637 113.467 137.609 111.375 146.402 110.623C148.864 110.413 151.468 110.308 154.216 110.308C157.737 110.308 468.92 110.493 471.964 110.864C480.126 111.858 486.575 114.184 491.309 117.843C497.051 122.281 500.272 128.678 500.971 137.036H481.897C481.347 133.346 479.503 130.717 476.363 129.147C475.18 128.51 166.419 126.674 164.064 126.674C161.709 126.674 160.531 126.674 158.765 126.674C156.999 126.674 155.622 126.674 153.862 126.674C152.474 126.674 151.165 126.711 149.934 126.785C140.308 127.361 135.494 130.189 135.494 135.27C135.494 139.273 138.83 141.667 145.502 142.452L477.069 145.396C494.26 147.593 502.855 155.561 502.855 169.298C502.855 178.011 499.401 184.722 492.494 189.432C487.357 192.876 480.528 195.039 472.006 195.922C469.068 196.226 158.028 196.379 154.687 196.379Z" fill="#E22A0A"/>
<path d="M111.079 99.0691H90.5916L84.8221 81.643H41.3746L35.6052 99.0691H15L42.3166 17.0016H83.8802L111.079 99.0691ZM57.3878 33.6035L46.9086 65.1588H79.2881L68.8089 33.6035H57.3878Z" fill="#E22A0A"/>
</g>
<defs>
<filter id="filter0_g_1_96" x="0" y="0" width="517.855" height="211.379" filterUnits="userSpaceOnUse" color-interpolation-filters="sRGB">
<feFlood flood-opacity="0" result="BackgroundImageFix"/>
<feBlend mode="normal" in="SourceGraphic" in2="BackgroundImageFix" result="shape"/>
<feTurbulence type="fractalNoise" baseFrequency="0.0099999997764825821 0.0099999997764825821" numOctaves="3" seed="5902" />
<feDisplacementMap in="shape" scale="30" xChannelSelector="R" yChannelSelector="G" result="displacedImage" width="100%" height="100%" />
<feMerge result="effect1_texture_1_96">
<feMergeNode in="displacedImage"/>
</feMerge>
</filter>
</defs>
</svg>
