<svg width="625" height="518" viewBox="0 0 625 518" fill="none" xmlns="http://www.w3.org/2000/svg">
<g filter="url(#filter0_g_29_73)">
<path d="M573.288 122.574C576.848 121.328 580.355 122.546 583.119 124.562C585.894 126.587 588.264 129.633 589.88 132.884C591.488 136.121 592.476 139.819 592.189 143.215C591.893 146.72 590.193 150.009 586.452 151.71C580.943 154.214 573.561 157.518 567.56 160.194C564.559 161.532 561.902 162.715 559.995 163.562C559.724 163.683 559.467 163.796 559.227 163.902C559.283 164.027 559.342 164.156 559.401 164.29C560.162 166 561.237 168.445 562.494 171.388C565.006 177.272 568.255 185.167 571.187 193.183C574.109 201.172 576.759 209.393 578.026 215.891C578.655 219.114 578.982 222.105 578.747 224.498C578.526 226.744 577.674 229.49 574.924 230.432C569.485 232.295 559.115 233.527 550.413 234.301C545.997 234.693 541.905 234.976 538.918 235.16C537.424 235.252 536.205 235.319 535.358 235.364C534.935 235.386 534.605 235.404 534.38 235.415C534.267 235.42 534.18 235.424 534.122 235.427C534.093 235.428 534.071 235.43 534.055 235.43C534.048 235.431 534.042 235.431 534.038 235.431C534.037 235.431 534.036 235.431 534.035 235.431L515.507 236.639C515.586 236.751 515.666 236.863 515.745 236.975C523.141 247.54 526.536 261.469 526.916 274.973C527 274.976 527.088 274.979 527.18 274.982C528.286 275.018 529.904 275.078 531.956 275.174C536.059 275.366 541.903 275.702 548.875 276.283C562.809 277.443 581.3 279.579 599.443 283.487C602.094 284.058 604.321 285.203 606.039 286.947C607.75 288.685 608.821 290.881 609.391 293.343C610.511 298.173 609.772 304.308 607.903 311.114C604.144 324.802 595.42 342.541 584.742 361.087C563.343 398.251 533.645 439.409 518.407 459.444C514.196 464.981 508.977 467.69 503.108 467.896C497.385 468.098 491.351 465.91 485.352 462.345C473.361 455.221 460.521 441.996 448.827 427.768C437.087 413.485 426.323 397.966 418.502 386.036C418.151 385.5 417.806 384.971 417.467 384.45C420.16 392.572 422.826 401.312 425.088 410.058C429.35 426.543 432.261 443.333 431.095 456.114C430.511 462.506 428.884 468.198 425.612 472.335C422.244 476.593 417.346 478.934 410.917 478.934H125.917C119.289 478.934 113.712 475.361 109.196 469.783C104.698 464.227 101.062 456.472 98.2137 447.486C92.5095 429.49 89.7599 405.898 89.9803 383.16C90.2004 360.456 93.3848 338.268 99.7791 323.163C102.967 315.633 107.086 309.541 112.34 306.178C117.787 302.693 124.126 302.348 131.008 305.684C147.094 313.484 167.115 322.614 187.274 331.522C195.856 325.585 203.773 320.382 209.623 316.616C212.349 314.861 214.629 313.418 216.317 312.356C210.236 308.211 205.039 304.421 201.098 301.191C198.838 299.339 196.945 297.635 195.525 296.125C194.181 294.695 192.993 293.167 192.529 291.675C191.989 289.934 192.403 288.213 193.135 286.748C193.865 285.285 195.026 283.833 196.42 282.417C199.215 279.577 203.362 276.474 208.297 273.267C218.2 266.831 231.764 259.668 245.381 253.001C259.016 246.324 272.785 240.105 283.138 235.558C284.362 235.021 285.538 234.507 286.66 234.018C275.113 224.229 269.493 212.248 268.558 200.146C267.561 187.225 271.916 174.354 279.743 164.043C295.433 143.373 325.393 132.666 355.166 152.276C371.16 162.811 379.193 176.376 381.013 190.161C381.301 192.349 381.432 194.535 381.415 196.709C397.762 190.368 415.394 183.532 433.112 176.665C499.99 150.745 568.233 124.343 573.288 122.574ZM128.827 310.183C123.334 307.52 118.859 307.942 115.035 310.389C111.018 312.96 107.407 317.971 104.384 325.112C98.3565 339.35 95.1967 360.789 94.9793 383.209C94.7623 405.595 97.4817 428.628 102.98 445.975C105.733 454.66 109.133 461.759 113.082 466.636C117.013 471.492 121.295 473.934 125.917 473.934H410.917C415.987 473.934 419.372 472.165 421.691 469.233C424.107 466.179 425.573 461.596 426.115 455.66C427.199 443.785 424.484 427.699 420.247 411.309C416.028 394.991 410.373 378.644 405.764 366.359C403.462 360.221 401.424 355.106 399.963 351.529C399.758 351.029 399.563 350.559 399.382 350.121C392.503 358.627 385.312 366.58 378.868 372.878C375.035 376.623 371.435 379.817 368.3 382.201C365.255 384.516 362.365 386.294 360.004 386.864C358.495 387.228 356.584 386.984 354.685 386.56C352.676 386.112 350.255 385.359 347.518 384.366C342.036 382.378 335.064 379.348 327.159 375.599C314.615 369.651 299.607 361.837 284.256 353.365C285.18 355.724 286.182 358.543 286.899 361.305C287.342 363.009 287.691 364.745 287.84 366.371C287.985 367.965 287.955 369.631 287.503 371.105C287.029 372.648 286.035 374.12 284.251 374.86C282.579 375.554 280.661 375.41 278.707 374.831C273.756 373.364 259.398 367.697 240.759 359.938C230.367 372.965 221.188 388.881 213.779 403.737C207.817 415.691 203.064 426.83 199.801 434.98C198.17 439.054 196.913 442.378 196.064 444.68C195.64 445.831 195.317 446.726 195.102 447.332C194.995 447.634 194.914 447.866 194.86 448.019C194.834 448.095 194.814 448.153 194.801 448.191C194.794 448.21 194.789 448.224 194.786 448.233C194.785 448.237 194.783 448.241 194.782 448.243V448.245L192.417 447.433L194.782 448.246L193.645 451.555L190.883 449.407L192.417 447.433C190.895 449.39 190.882 449.407 190.881 449.406C190.88 449.405 190.879 449.404 190.878 449.403C190.875 449.401 190.871 449.398 190.866 449.394C190.856 449.387 190.842 449.376 190.824 449.362C190.788 449.334 190.734 449.291 190.665 449.236C190.525 449.126 190.32 448.964 190.055 448.753C189.526 448.33 188.755 447.709 187.785 446.912C185.846 445.318 183.107 443.017 179.901 440.181C173.498 434.517 165.194 426.689 157.661 418.08C150.163 409.511 143.267 399.988 139.873 390.936C136.46 381.835 136.419 372.608 143.686 365.631C154.105 355.628 168.826 344.486 182.481 334.867C163.236 326.337 144.247 317.66 128.827 310.183ZM526.92 279.976C526.605 291.9 523.981 303.398 519.483 311.885C516.935 316.692 513.705 320.687 509.795 323.169C505.814 325.695 501.219 326.586 496.271 325.261C495.65 325.095 495.025 324.894 494.4 324.66C482.251 320.545 474.188 313.718 466.552 307.378C469.879 317.569 474.422 326.96 481.067 338.156L478.917 339.432L476.767 340.709L475.993 339.413C468.003 326.145 460.369 316.49 451.846 308.787C445.099 302.688 437.738 297.762 429.097 293.233C429.411 295.628 429.15 298.262 428.532 300.964C427.602 305.031 425.787 309.596 423.388 314.395C418.584 324.002 411.26 334.897 403.269 345.215C403.159 345.358 403.045 345.5 402.934 345.642C403.339 346.604 403.903 347.954 404.591 349.638C405.958 352.986 407.821 357.661 409.934 363.252C410.056 363.181 410.074 363.171 410.076 363.17C410.076 363.171 410.077 363.172 410.078 363.174C410.08 363.177 410.083 363.183 410.088 363.19C410.097 363.205 410.111 363.23 410.129 363.261C410.165 363.323 410.221 363.416 410.294 363.54C410.44 363.788 410.66 364.157 410.947 364.636C411.522 365.597 412.37 367.004 413.462 368.781C415.645 372.336 418.802 377.374 422.683 383.295C430.453 395.146 441.108 410.502 452.69 424.594C464.318 438.74 476.702 451.391 487.906 458.048C493.505 461.374 498.563 463.053 502.932 462.899C507.157 462.75 511.033 460.881 514.428 456.418C529.612 436.453 559.164 395.488 580.409 358.592C591.052 340.107 599.501 322.829 603.082 309.79C604.883 303.233 605.355 298.076 604.52 294.471C604.113 292.716 603.415 291.408 602.476 290.455C601.544 289.508 600.239 288.773 598.39 288.375C580.534 284.529 562.276 282.417 548.46 281.266C541.557 280.692 535.775 280.357 531.722 280.168C529.697 280.073 528.103 280.014 527.018 279.979C526.985 279.978 526.952 279.977 526.92 279.976ZM219.56 316.222C217.844 317.298 215.368 318.865 212.33 320.82C207.094 324.191 200.193 328.718 192.65 333.889C192.672 333.899 192.695 333.908 192.717 333.918L187.89 337.26C187.868 337.25 187.845 337.239 187.822 337.229C173.542 347.193 157.91 358.905 147.148 369.237C141.917 374.26 141.499 381.033 144.555 389.18C147.629 397.378 154.047 406.356 161.424 414.787C168.765 423.178 176.9 430.851 183.215 436.436C186.368 439.226 189.059 441.488 190.96 443.05C191.058 443.13 191.155 443.209 191.249 443.286C191.289 443.177 191.33 443.065 191.372 442.951C192.234 440.611 193.509 437.243 195.159 433.122C198.458 424.882 203.268 413.613 209.305 401.506C216.508 387.064 225.549 371.237 235.969 357.938C235.955 357.933 235.941 357.926 235.928 357.921L239.23 353.884C239.237 353.886 239.243 353.89 239.25 353.892C244.621 347.5 250.329 341.846 256.312 337.427C243.354 329.79 231.081 322.192 220.862 315.409C220.496 315.637 220.06 315.909 219.56 316.222ZM580.172 128.601C578.16 127.134 576.379 126.79 574.939 127.294C569.985 129.028 501.884 155.374 434.919 181.327C416.416 188.498 398.008 195.636 381.057 202.211C379.898 211.694 375.989 220.732 370.123 228.323C361.804 239.088 349.469 247.051 335.215 249.295C321.492 251.454 306.171 248.284 291.164 237.515C289.331 238.309 287.314 239.186 285.149 240.136C274.831 244.668 261.13 250.856 247.579 257.492C234.008 264.137 220.664 271.193 211.021 277.46C206.184 280.603 202.397 283.473 199.983 285.925C198.773 287.154 198.01 288.177 197.608 288.981C197.209 289.782 197.282 290.121 197.305 290.193C197.404 290.513 197.88 291.33 199.168 292.699C200.38 293.989 202.091 295.54 204.267 297.324C208.615 300.887 214.65 305.235 221.872 310.076C236.304 319.749 255.31 331.279 274.651 342.26C293.992 353.24 313.623 363.647 329.301 371.081C337.145 374.801 343.955 377.756 349.222 379.666C351.86 380.622 354.058 381.297 355.774 381.679C357.602 382.087 358.527 382.077 358.831 382.004C360.094 381.699 362.268 380.507 365.273 378.221C368.189 376.004 371.628 372.963 375.373 369.303C382.859 361.986 391.439 352.324 399.315 342.153C407.2 331.972 414.313 321.365 418.916 312.16C421.219 307.553 422.85 303.383 423.658 299.849C424.478 296.262 424.376 293.653 423.626 291.932C423.347 291.294 422.703 290.503 421.431 289.628C420.171 288.76 418.441 287.911 416.235 287.102C411.822 285.484 405.845 284.149 398.752 283.069C384.588 280.913 366.414 279.839 348.415 279.371C330.435 278.903 312.709 279.043 299.473 279.301C292.857 279.429 287.366 279.587 283.531 279.713C281.614 279.775 280.11 279.83 279.087 279.869C278.575 279.888 278.184 279.904 277.921 279.915C277.789 279.92 277.689 279.925 277.623 279.928C277.59 279.929 277.565 279.93 277.549 279.93C277.541 279.931 277.534 279.931 277.53 279.931C277.528 279.931 277.526 279.931 277.525 279.931C277.524 279.924 277.518 279.795 277.417 277.433C277.316 275.081 277.311 274.944 277.312 274.936C277.313 274.936 277.315 274.936 277.317 274.936L277.415 274.931C277.483 274.929 277.585 274.925 277.718 274.92C277.985 274.909 278.381 274.892 278.896 274.873C279.928 274.833 281.441 274.779 283.368 274.716C284.305 274.685 285.34 274.653 286.465 274.619C318.53 259.594 406.655 221.046 480.363 219.434C493.891 219.139 504.193 224.041 511.604 231.884L530.346 230.661C529.844 229.331 529.22 227.637 528.534 225.673C526.806 220.726 524.666 214.024 523.045 207.063C521.433 200.141 520.291 192.785 520.664 186.589C521.029 180.521 522.931 174.636 528.383 172.158C536.642 168.404 543.276 165.45 547.846 163.435C550.131 162.428 551.901 161.655 553.099 161.134C553.699 160.873 554.156 160.675 554.464 160.542C554.617 160.476 554.733 160.425 554.811 160.391C554.85 160.375 554.88 160.362 554.9 160.353C554.91 160.349 554.918 160.346 554.923 160.344C554.924 160.343 554.925 160.342 554.926 160.342C554.934 160.338 554.945 160.334 554.957 160.329C554.992 160.313 555.045 160.289 555.114 160.259C555.252 160.197 555.457 160.107 555.72 159.99C556.246 159.756 557.012 159.416 557.965 158.993C559.87 158.146 562.526 156.965 565.524 155.628C571.523 152.952 578.891 149.654 584.383 147.158C586.141 146.359 587.029 144.897 587.207 142.794C587.394 140.58 586.744 137.809 585.402 135.109C584.067 132.422 582.172 130.061 580.172 128.601ZM261.038 340.197C255.143 344.251 249.471 349.658 244.094 355.909C261.93 363.319 275.502 368.667 280.128 370.037C281.546 370.457 282.16 370.314 282.335 370.242C282.396 370.217 282.563 370.157 282.722 369.638C282.903 369.05 282.978 368.121 282.86 366.825C282.745 365.56 282.462 364.108 282.06 362.562C281.258 359.47 280.039 356.213 279.004 353.698C278.489 352.448 278.026 351.397 277.693 350.66C277.527 350.292 277.393 350.003 277.302 349.808C277.256 349.711 277.221 349.636 277.198 349.588C277.187 349.564 277.177 349.545 277.172 349.534C277.169 349.529 277.167 349.525 277.166 349.522L277.165 349.519C277.166 349.519 277.175 349.514 277.262 349.472C275.568 348.522 273.874 347.568 272.183 346.608C268.447 344.487 264.722 342.344 261.038 340.197ZM480.538 224.432C476.604 224.73 473.045 226.61 470.029 229.941C478.433 231.008 486.299 232.713 494.531 235.503C500.598 236.527 506.689 241.814 510.473 250.669C514.339 259.716 515.95 272.734 512.878 289.875C511.755 296.138 510.049 300.831 507.869 304.067C505.666 307.337 502.842 309.288 499.602 309.528C498.934 309.578 498.269 309.548 497.613 309.454C492.644 309.013 488.225 306.805 483.905 304.268C481.451 302.828 479.041 301.292 476.484 299.779C476.823 300.395 477.175 301.009 477.544 301.618C484.512 312.456 490.825 317.957 496.1 319.957C496.593 320.123 497.093 320.285 497.601 320.441C501.106 321.369 504.256 320.761 507.115 318.947C510.056 317.081 512.77 313.876 515.066 309.544C519.661 300.873 522.254 288.299 521.926 275.349C521.597 262.403 518.356 249.425 511.648 239.844C505.03 230.39 494.983 224.136 480.538 224.432ZM467.799 225.061C405.073 229.804 334.664 258.307 299.125 274.306C299.208 274.305 299.293 274.303 299.377 274.302C312.657 274.043 330.463 273.902 348.545 274.372C366.607 274.841 385.028 275.923 399.505 278.127C406.731 279.227 413.086 280.622 417.957 282.408C419.807 283.087 421.492 283.84 422.951 284.682L422.962 284.661C435.613 290.481 445.922 296.691 455.2 305.078C457.988 307.598 460.673 310.308 463.297 313.251C461.851 309.312 460.599 305.296 459.498 301.063C454.196 280.68 453.637 261.002 457.112 246.103C459.154 237.349 462.714 229.862 467.799 225.061ZM466.707 234.584C464.749 238.001 463.148 242.239 461.981 247.239C458.775 260.986 459.181 279.495 464.128 298.98C468.507 302.366 472.424 305.842 476.593 309.085C475.504 307.591 474.41 305.991 473.314 304.285L473.296 304.257L473.279 304.229C462.864 287.043 463.282 266.654 468.66 255.359L468.661 255.356C471.651 249.096 475.079 243.74 479.223 240.134C480.46 239.058 481.763 238.137 483.133 237.394C477.782 236.097 472.408 235.207 466.707 234.584ZM493.547 240.406C489.38 239.781 485.81 241.03 482.506 243.905C479.493 246.527 476.732 250.488 474.14 255.555L492.664 256.167C493.024 256.152 493.385 256.168 493.745 256.216C497.052 256.653 499.355 259.497 500.641 263.184C501.961 266.967 502.492 272.287 501.908 279.144L501.701 281.583L499.259 281.428L486.168 280.595C486.329 286.662 487.844 292.22 490.032 296.477C492.575 301.424 495.7 304.043 498.17 304.482C498.549 304.513 498.93 304.529 499.315 304.532C500.583 304.41 502.137 303.626 503.722 301.273C505.366 298.834 506.899 294.894 507.957 288.992C510.904 272.547 509.265 260.564 505.876 252.634C502.455 244.629 497.399 240.984 493.547 240.406ZM471.977 260.486C469.27 268.516 468.904 280.497 473.084 292.21C478.042 294.686 482.36 297.542 486.125 299.77C485.94 299.439 485.759 299.103 485.585 298.763C482.688 293.128 480.893 285.733 481.185 277.841C481.32 274.208 481.899 270.457 483.023 266.714C483.695 264.478 484.569 262.53 485.609 260.936L471.977 260.486ZM492.759 261.173C492.28 261.229 491.49 261.56 490.547 262.661C489.568 263.803 488.575 265.613 487.811 268.153C487.064 270.642 486.587 273.139 486.346 275.596L497.086 276.279C497.323 271.096 496.794 267.334 495.921 264.832C494.931 261.995 493.735 261.305 493.168 261.186L492.759 261.173ZM352.416 156.452C325.14 138.487 298.05 148.194 283.725 167.065C276.545 176.524 272.651 188.207 273.543 199.761C274.419 211.113 279.925 222.524 291.835 231.781C291.843 231.778 291.85 231.774 291.858 231.77C293.578 233.091 294.609 234.048 296.918 235.433C296.92 235.433 296.934 235.428 296.959 235.419C310.015 243.876 322.96 246.162 334.437 244.356C347.326 242.328 358.561 235.107 366.167 225.265C370.964 219.057 374.284 211.847 375.679 204.298C375.639 204.313 375.598 204.328 375.558 204.344C376.227 201.553 375.949 201.718 376.418 198.433L376.36 198.455C376.485 195.919 376.392 193.364 376.055 190.815C374.446 178.628 367.339 166.281 352.416 156.452ZM549.863 168.011C545.309 170.019 538.692 172.964 530.452 176.71C527.655 177.981 525.993 181.286 525.655 186.888C525.325 192.363 526.34 199.165 527.915 205.929C529.481 212.655 531.56 219.174 533.254 224.023C534.099 226.444 534.847 228.442 535.381 229.831C535.451 230.013 535.519 230.184 535.582 230.344C536.372 230.302 537.4 230.244 538.61 230.17C541.567 229.987 545.612 229.708 549.971 229.32C558.811 228.534 568.534 227.332 573.295 225.704C573.308 225.691 573.346 225.65 573.395 225.559C573.528 225.315 573.69 224.834 573.771 224.008C573.935 222.345 573.717 219.922 573.118 216.848C571.929 210.752 569.392 202.833 566.491 194.901C563.6 186.997 560.388 179.19 557.895 173.351C556.65 170.434 555.585 168.013 554.833 166.322C554.77 166.18 554.708 166.044 554.649 165.913C553.48 166.422 551.872 167.125 549.863 168.011Z" fill="#E22A0A"/>
</g>
<g filter="url(#filter1_g_29_73)">
<path d="M152.884 59.4297C148.167 94.6888 149.933 118.31 160.668 136.104C171.403 153.896 191.438 166.414 224.756 178.567L223.9 180.916L223.778 183.414C188.362 181.687 165.077 185.365 148.375 197.358C131.683 209.344 121.044 230.013 111.944 263.695L109.531 263.043L107.053 262.714C111.636 228.128 109.783 204.955 98.9995 187.462C88.2094 169.959 68.1399 157.592 34.7939 145.537L35.6437 143.186L35.7588 140.688C71.187 142.314 94.4986 138.483 111.26 126.202C128.024 113.919 138.756 92.8026 147.991 58.4491L150.406 59.0984L152.884 59.4297ZM145.636 82.8985C137.699 104.766 127.994 120.139 114.216 130.234C98.5803 141.691 78.0839 146.069 50.0199 146.042C75.937 156.726 93.1882 168.508 103.255 184.838C112.135 199.242 115.23 216.869 114.211 239.693C122.065 218.239 131.715 203.166 145.459 193.297C161.042 182.107 181.5 177.883 209.532 178.012C183.626 167.222 166.4 155.283 156.387 138.686C147.564 124.061 144.532 106.135 145.636 82.8985Z" fill="#E22A0A"/>
</g>
<g filter="url(#filter2_g_29_73)">
<path d="M274.615 48.0706C275.612 62.59 278.356 71.5219 284.084 77.4456C289.841 83.3979 299.059 86.7829 314.274 88.9856L313.915 91.4602L314.267 93.9358C299.045 96.0975 289.822 99.4203 284.067 105.258C278.35 111.057 275.611 119.798 274.615 134.031L272.121 133.856H272.12L269.627 134.031C268.631 119.798 265.891 111.057 260.175 105.258C254.42 99.4203 245.197 96.0975 229.975 93.9358L230.326 91.4602L229.968 88.9856C245.183 86.7829 254.401 83.3979 260.157 77.4456C265.886 71.5219 268.629 62.5899 269.626 48.0706L272.12 48.2415L274.615 48.0706ZM272.12 65.1262C270.401 71.5824 267.759 76.7774 263.752 80.9211C258.913 85.9251 252.299 89.1717 243.56 91.4368C252.289 93.6575 258.898 96.8409 263.736 101.748C267.752 105.822 270.399 110.932 272.12 117.28C273.842 110.932 276.49 105.823 280.506 101.748C285.344 96.841 291.952 93.6575 300.681 91.4368C291.942 89.1718 285.328 85.925 280.49 80.9211C276.482 76.7774 273.84 71.5826 272.12 65.1262Z" fill="#E22A0A"/>
</g>
<defs>
<filter id="filter0_g_29_73" x="79.968" y="112.07" width="539.951" height="376.864" filterUnits="userSpaceOnUse" color-interpolation-filters="sRGB">
<feFlood flood-opacity="0" result="BackgroundImageFix"/>
<feBlend mode="normal" in="SourceGraphic" in2="BackgroundImageFix" result="shape"/>
<feTurbulence type="fractalNoise" baseFrequency="0.0099999997764825821 0.0099999997764825821" numOctaves="3" seed="6963" />
<feDisplacementMap in="shape" scale="20" xChannelSelector="R" yChannelSelector="G" result="displacedImage" width="100%" height="100%" />
<feMerge result="effect1_texture_29_73">
<feMergeNode in="displacedImage"/>
</feMerge>
</filter>
<filter id="filter1_g_29_73" x="19.7939" y="43.4491" width="219.962" height="235.246" filterUnits="userSpaceOnUse" color-interpolation-filters="sRGB">
<feFlood flood-opacity="0" result="BackgroundImageFix"/>
<feBlend mode="normal" in="SourceGraphic" in2="BackgroundImageFix" result="shape"/>
<feTurbulence type="fractalNoise" baseFrequency="0.011111111380159855 0.011111111380159855" numOctaves="3" seed="8417" />
<feDisplacementMap in="shape" scale="30" xChannelSelector="R" yChannelSelector="G" result="displacedImage" width="100%" height="100%" />
<feMerge result="effect1_texture_29_73">
<feMergeNode in="displacedImage"/>
</feMerge>
</filter>
<filter id="filter2_g_29_73" x="219.968" y="38.0706" width="104.306" height="105.96" filterUnits="userSpaceOnUse" color-interpolation-filters="sRGB">
<feFlood flood-opacity="0" result="BackgroundImageFix"/>
<feBlend mode="normal" in="SourceGraphic" in2="BackgroundImageFix" result="shape"/>
<feTurbulence type="fractalNoise" baseFrequency="0.0099999997764825821 0.0099999997764825821" numOctaves="3" seed="7961" />
<feDisplacementMap in="shape" scale="20" xChannelSelector="R" yChannelSelector="G" result="displacedImage" width="100%" height="100%" />
<feMerge result="effect1_texture_29_73">
<feMergeNode in="displacedImage"/>
</feMerge>
</filter>
</defs>
</svg>
