<svg width="638" height="237" viewBox="0 0 638 237" fill="none" xmlns="http://www.w3.org/2000/svg">
<path d="M52.2724 98.5759C52.152 99.7694 51.1502 100.944 50.1579 101.728C49.8487 101.974 49.2012 101.479 48.9552 101.634C48.475 101.938 48.644 102.504 48.1122 102.779C47.9325 102.868 46.8694 102.165 46.7072 102.271C45.8262 102.855 45.7639 103.759 45.1431 104.471C42.08 107.986 39.8366 111.784 37.4898 115.665C36.714 116.951 34.9489 118.128 34.7934 119.743C34.7768 119.931 35.8334 120.273 35.9035 120.34C36.972 121.383 34.9944 120.334 34.5843 120.535C32.9667 121.326 32.2599 122.722 32.1427 124.098C32.095 124.687 34.3377 125.019 32.9809 125.066C32.8888 125.07 31.8623 124.482 31.6866 124.577C31.2899 124.794 31.226 125.491 31.036 125.706C30.6639 126.118 30.6417 126.202 30.4411 126.652C30.1586 127.261 29.3077 127.798 29.2822 128.568C29.2799 128.734 30.4717 128.998 30.5692 129.302C30.6659 129.607 30.3301 130.167 29.9852 130.265C29.6393 130.365 28.7965 129.925 28.5807 129.881C26.7605 129.502 28.8332 131.148 28.8568 131.259C29.2042 133.281 27.3083 134.181 26.7323 135.724C26.2909 136.916 26.2872 138.312 25.8234 139.42C25.2768 140.71 24.2632 141.65 23.9439 142.969C23.9091 143.107 25.3046 143.394 25.2653 143.563C24.8353 145.391 24.152 147.07 22.7359 148.554C22.5917 148.707 21.4624 148.136 21.2465 148.269C19.9533 149.07 17.1064 150.271 22.2073 152.199C21.8289 152.853 21.4103 153.701 20.2078 154.115C19.4329 154.387 18.1936 153.702 18.651 154.339C18.7529 154.482 19.9455 154.567 20.0104 154.765C20.2821 155.603 19.7587 156.313 20.2439 157.135C20.3454 157.303 21.4003 157.433 21.5825 157.505C23.0566 158.084 20.4453 158.244 20.2432 158.349C18.7383 159.095 19.1982 159.893 19.0948 160.745C19.0703 160.948 20.5111 160.821 20.5394 161.015C20.6699 161.997 20.5187 162.934 19.9095 163.82C19.7711 164.027 18.551 163.876 18.423 163.98C17.8765 164.458 20.1741 164.431 19.7058 164.836C19.6107 164.924 18.5701 164.96 18.4574 164.984C16.6892 165.377 19.2438 165.379 19.3047 165.419C20.1446 166.041 17.604 166.936 18.1482 167.609C18.2141 167.677 19.4496 167.192 19.5535 167.387C19.8847 168.002 20.1017 168.549 20.2246 169.095C20.3677 169.724 20.4034 170.408 20.5069 171.308C20.5409 171.568 19.7514 172.179 19.6729 172.273C18.5542 173.84 20.4199 172.081 20.5191 172.039C21.3312 171.836 20.6843 173.972 22.592 171.569C24.1607 173.696 27.422 172.69 30.3873 175.565C30.4277 175.599 30.2799 176.85 30.3629 176.912C31.3812 177.669 31.279 175.704 31.9653 173.332C32.1259 172.736 32.6029 175.624 32.6588 175.835C32.8293 176.614 32.6493 178.483 32.7075 178.634C33.2187 179.818 33.0894 173.636 33.6811 173.624C33.7006 173.634 33.6429 174.773 33.6967 174.886C33.8658 175.237 34.0156 174.781 34.1864 175.168C34.5742 176.063 34.8477 179.061 35.3468 177.287C35.4078 177.056 35.1297 173.56 35.6826 173.695C35.9055 173.753 36.8766 173.626 37.1657 173.828C37.4578 174.032 37.3645 175.174 37.3874 175.221C38.2737 176.645 38.0425 177.286 38.6481 179.452C39.2696 181.607 38.6408 176.385 38.7354 175.786C38.8284 175.189 39.5146 176.355 39.7054 176.765C39.8935 177.175 39.7991 177.908 39.9521 178.135C40.9775 179.612 40.0128 175.501 40.1809 174.64C40.5572 172.604 41.5289 176.408 42.1824 176.702C42.3559 176.781 42.1014 175.921 42.2302 175.818C42.7418 175.424 43.2537 176.577 43.712 175.375C43.7901 175.179 43.9105 172.785 44.5211 174.426C44.609 174.663 44.638 175.644 44.9107 175.818C45.3163 176.081 45.9939 176.177 46.3174 175.787C46.5554 175.5 45.9448 173.984 46.386 174.408C46.5832 174.598 46.4625 175.573 46.821 175.851C47.1796 176.129 47.9211 175.945 48.2019 175.856C48.4815 175.766 48.0875 174.606 48.0948 174.521C48.1423 174.034 48.5663 173.351 48.6141 173.342C50.968 172.708 53.6624 174.182 55.8543 172.931C56.0258 172.834 55.5891 171.624 55.612 171.596C56.106 170.917 56.4495 174.343 57.1764 175.334C56.4675 172.833 56.8452 173.222 57.2175 172.831C57.3962 172.64 57.0259 171.697 57.0195 171.592C56.9472 170.031 57.667 171.883 57.8277 172.258C58.4176 173.639 58.1967 171.882 58.5949 172.803C58.9929 173.717 59.0377 175.217 59.4636 175.084C59.3422 174.154 58.3972 171.89 58.6168 171.423C59.4341 169.663 62.1969 170.867 63.2324 170.771C64.2535 170.68 64.529 170.419 65.1886 170.574C66.3837 170.851 65.4897 169.235 65.8854 168.254C66.2795 167.271 67.2631 171.611 67.6325 172.496C68.0011 173.38 67.8139 172.411 68.0796 172.878C68.3452 173.345 68.2911 174.04 68.6136 174.147C68.9371 174.254 69.1588 172.41 68.9588 171.427C68.5306 169.347 67.5509 167.329 68.473 167.858C68.5266 167.89 68.7448 169.045 68.9324 169.11C70.1072 169.497 71.1819 169.344 72.2873 169.463C72.5691 169.49 72.8536 169.533 73.1441 169.606C73.3453 169.657 73.5956 170.941 73.7174 170.985C74.9865 171.446 73.9431 169.483 73.7382 166.992C74.6193 170.108 75.5497 171.888 76.3271 171.651C76.7927 171.51 76.2676 170.195 76.2467 169.152C76.2383 168.838 76.8777 169.647 76.725 168.997C76.2277 166.872 75.1507 164.669 76.2368 165.324C76.2856 165.357 76.5581 166.52 76.6992 166.548C77.6083 166.737 76.9751 164.552 77.7002 164.011C78.2587 163.59 79.8686 164.492 80.6679 164.444C81.8815 167.874 82.3077 166.835 81.7227 164.377C82.2247 164.303 82.6913 163.98 83.2663 164.135C83.4641 164.187 83.7312 165.211 83.7909 165.311C84.7239 166.868 84.0683 164.506 84.1342 164.379C84.9063 163.091 86.4772 164.463 86.8424 162.369C86.855 162.293 85.969 159.926 86.9364 161.525C87.0028 161.635 87.09 162.841 87.6136 162.724C88.1324 162.61 89.5809 163.477 89.7992 162.11C89.8535 161.781 89.4492 159.723 90.4137 161.051C90.5442 161.232 90.7848 161.918 91.0093 162.26C91.7301 163.348 90.8173 160.959 91.9318 162.839C93.0438 164.721 94.2375 165.97 94.312 164.292C94.3167 164.242 93.6389 162.326 93.8655 162.257C94.2292 162.149 94.8918 162.306 95.2421 162.126C95.4093 162.039 94.7634 160.954 94.783 160.919C95.6125 159.747 96.8949 160.368 98.3258 160.189C98.5915 160.157 98.4356 158.311 99.4836 159.292C100.64 160.361 103.02 166.086 103.456 164.189C103.645 163.421 100.44 156.253 103.166 159.381C104.176 157.671 106.593 158.67 107.345 156.544C107.379 156.449 106.458 154.452 106.626 154.385C106.879 154.289 107.536 155.084 107.736 155.041C108.582 154.885 108.75 153.752 109.472 153.458C109.746 153.344 110.223 154.292 110.552 154.153C110.88 154.014 110.336 152.712 111.094 153.023C111.669 153.263 113.514 155.455 114.106 155.465C112.593 153.105 112.905 152.971 112.981 152.036C112.995 151.855 112.36 151.104 112.339 150.977C112.241 150.439 112.851 151.006 112.72 150.436C112.689 150.299 112.163 149.499 112.108 149.342C111.617 147.976 113.273 149.46 113.563 149.718C114.664 150.695 114.117 149.563 114.668 149.868C115.221 150.172 115.253 150.995 115.724 151.088C116.702 151.279 117.347 150.652 117.967 150.28C118.204 150.132 117.323 149.186 117.34 149.14C117.63 148.548 118.892 149.328 117.709 147.05C121.801 152.223 117.633 146.326 119.063 146.934C119.178 146.985 121.031 149.487 121.085 150.007C121.137 150.528 120.276 149.942 120.386 150.733C120.413 150.918 121.676 153.592 121.722 153.775C122.079 155.207 119.381 151.416 119.214 151.221C117.403 149.12 118.7 152.041 118.691 152.31C118.661 153.535 117.813 153.32 117.706 154.248C117.639 154.847 119.304 157.399 118.995 157.494C117.974 157.805 115.324 154.461 116.547 158.066C116.805 158.837 118.802 161.511 116.736 159.731C116.604 159.62 114.837 157.91 115.39 159.356C115.46 159.538 115.986 160.354 115.985 160.451C115.972 161.087 115.348 160.568 115.216 161.091C115.082 161.615 114.98 162.332 114.423 162.293C114.085 162.272 112.834 160.92 112.493 160.611C111.514 159.717 112.283 161.699 111.284 160.5C110.281 159.293 109.421 157.056 108.404 156.502C109.698 158.667 111.001 160.904 112.289 163.089C111.113 163.7 109.584 163.658 108.485 164.418C108.351 164.515 109.172 165.606 109.044 165.74C108.502 166.299 107.447 165.784 106.957 166.495C106.576 167.052 106.676 168.633 106.279 169.255C104.571 166.897 104.209 168.197 103.476 168.278C103.221 168.307 102.883 167.614 102.618 167.467C101.629 166.928 103.052 169.065 103.076 169.503C103.166 171.377 100.517 166.249 99.8067 166.758C99.7708 166.782 100.609 169.797 100.618 170.006C100.707 171.351 100.076 169.078 99.6945 169.01C98.9973 168.884 98.3302 168.388 98.1067 169.487C98.0453 169.81 98.4169 171.752 97.451 170.562C97.3248 170.406 96.9274 169.47 96.8664 169.432C95.801 168.826 97.0992 171.745 97.1531 172.907C97.2023 174.07 95.7177 172.313 95.3457 171.781C94.3757 170.41 95.3038 171.032 95.2559 170.877C94.6808 169.032 94.3913 169.52 94.0031 169.512C92.7095 166.658 92.3419 167.021 93.6057 169.514C93.745 169.786 93.8814 169.408 94.0031 169.512C94.943 172.455 94.574 173.042 92.9049 170.628C92.124 169.496 91.7601 167.948 91.2062 168.8C90.9561 169.184 91.9153 171.122 91.8236 171.796C91.6032 173.337 89.9128 171.847 89.2844 172.433C89.054 172.647 89.75 173.643 89.6061 173.827C89.231 174.318 88.4778 173.658 88.1411 174.272C88.1108 174.329 88.6617 175.442 88.5108 175.517C87.3868 176.097 86.0889 175.732 84.8537 176.153C84.2657 176.354 83.4259 177.374 82.7724 177.456C81.6324 177.609 79.7648 176.345 78.9943 177.062C78.5015 177.521 79.019 178.652 79.0325 179.535C79.0598 181.246 77.2646 178.757 77.0195 178.36C77.0104 178.347 77.4234 177.905 76.9561 177.39C76.3912 176.184 77.0236 178.352 77.0195 178.36C76.855 178.106 75.764 178.165 75.6329 178.455C75.5629 178.614 75.9836 179.709 75.9401 179.77C75.8614 179.879 75.781 179.983 75.6991 180.084C74.7269 181.303 73.5197 181.912 72.0866 181.826C72.0551 181.811 71.7045 180.547 71.6353 180.528C70.6645 180.218 70.6298 181.905 70.2341 183.019C69.8381 184.132 69.2197 183.984 68.1849 181.945C67.7623 182.365 66.7579 181.623 66.1794 181.162C65.5993 180.702 66.2467 183.17 66.2237 183.229C65.5152 185.111 64.4526 183.894 63.1935 184.004C62.5945 184.053 61.5599 184.714 61.0051 185.147C60.569 185.494 60.123 184.992 59.7631 185.479C59.7141 185.544 60.0582 186.629 60.0503 186.676C59.8741 188.123 59.4347 185.37 59.2075 184.916C58.3834 183.265 57.9225 182.391 57.4813 183.374C57.3815 183.599 57.8941 187.59 57.6673 187.885C57.3741 188.261 57.1758 186.835 56.8784 187.263C56.8526 187.298 57.0646 188.157 56.8205 188.174C55.6862 188.27 54.3836 188.038 53.252 188.372C53.0967 188.415 53.5936 189.742 53.3725 189.826C52.3382 190.218 51.1269 190.41 49.9478 189.966C49.6569 189.853 49.6372 188.857 49.5268 188.582C48.8583 186.913 48.8359 189.523 48.76 189.586C47.0184 191.152 45.1433 189.107 43.252 190.476C43.1569 190.554 42.6254 193.393 41.9422 191.1C41.8933 190.948 41.2357 188.599 41.083 190.274C41.0725 190.379 41.4527 191.586 41.0155 191.507C40.5842 191.427 39.9714 192.323 39.2524 191.018C39.0214 190.607 38.3966 188.249 37.999 190.201C37.9926 190.337 37.3868 194.725 36.8778 191.758C36.7957 191.269 36.6667 188.109 36.092 189.764C35.9795 190.084 36.2499 190.778 35.9297 191.235C35.44 191.938 34.6925 191.118 34.0555 192.541C33.9492 192.793 33.4609 194.949 33.0394 193.32C32.9737 193.065 33.091 192.009 32.8743 191.891C31.8465 191.326 30.7806 192.01 29.7218 191.222C29.3577 190.945 29.6448 189.251 29.2962 188.771C28.9487 188.292 28.2392 187.794 27.756 188.53C27.2679 189.266 27.458 192.023 26.7793 192.169C23.7613 192.782 20.9244 190.626 17.7892 189.189C17.3138 188.968 17.3711 190.04 16.624 189.758C13.962 188.941 8.04081 186.076 7.57053 182.138C7.30694 179.257 10.1238 180.663 9.58678 178.95C9.38838 178.193 6.29149 179.261 6.07753 179.113C5.19638 178.59 4.80724 177.85 4.57246 177.104C4.29772 176.204 4.25692 175.308 3.69471 174.5C3.48836 174.203 2.4068 174.975 2.24326 174.71C1.67324 173.801 1.90687 172.571 1.59151 171.722C1.44716 171.34 0.510518 171.635 0.499315 171.243C0.466944 170.313 0.731112 169.427 1.5303 168.528C1.60371 168.45 2.87552 168.739 2.83978 168.161C2.77845 167.204 3.5827 166.048 2.60293 165.115C2.30907 164.836 0.0672474 164.895 1.59516 164.189C1.91578 164.04 4.6034 164.169 2.27304 163.494C1.8825 163.405 -1.24347 162.098 0.802523 161.54C1.33922 161.401 3.55228 161.126 3.22415 160.795C3.17151 160.747 1.96076 160.861 1.85862 160.583C1.52106 159.595 1.73489 158.606 1.46396 157.629C1.39008 157.362 0.110153 157.608 0.0408249 157.209C-0.147411 156.077 0.345308 154.874 0.895647 153.939C1.10051 153.597 2.07514 154.02 2.1903 154.012C4.05994 153.895 1.67217 153.257 1.55602 153.089C0.860558 152.092 2.12544 151.65 1.98258 150.827C1.94586 150.603 0.765623 150.511 0.671687 150.448C-0.238693 149.804 1.75752 150.56 2.04233 150.337C2.84605 149.72 2.94856 148.841 2.98108 148.062C2.99135 147.775 1.5932 147.766 1.61853 147.51C1.74732 145.975 2.27719 144.485 3.39363 143.297C3.60671 143.073 4.56839 143.525 4.8143 143.536C6.53318 143.616 4.48871 142.462 4.31758 142.272C3.52913 141.429 4.48441 141.471 4.46926 140.923C4.37799 138.239 5.94397 135.485 7.07389 133.432C8.55165 130.72 10.2854 128.946 11.0719 126.207C11.1235 126.033 9.75766 125.696 9.7855 125.54C10.1957 123.564 11.4361 121.938 11.8191 119.944C11.8532 119.78 10.5398 119.498 10.5538 119.217C10.5752 118.636 10.8981 118.044 11.4972 117.703C11.7867 117.537 12.698 118.3 12.9678 118.125C13.5979 117.719 13.9431 117.139 13.9934 116.474C14.0118 116.191 12.6083 116.038 12.7297 115.71C13.5342 113.46 14.2519 111.208 16.8165 109.717C16.9924 109.615 19.5674 110.587 19.224 110.058C18.536 109.727 17.7138 109.368 16.9718 109.029C17.9576 105.692 20.215 102.987 21.7627 99.9301C21.8277 99.8011 20.3982 99.4268 20.5174 99.1738C21.207 97.7057 21.4897 96.1136 23.4938 95.2135C23.6907 95.1236 25.9856 96.2661 25.8338 95.6669C25.8048 95.5605 25.7958 94.7601 25.3684 94.3579C25.3028 94.2998 24.1606 93.9213 24.2263 93.6944C24.6275 92.3846 25.4705 91.2056 26.6994 90.2845C26.8999 90.1367 27.9594 90.8806 28.1122 90.78C29.1875 90.0618 28.8098 88.5693 30.3 88.0997C31.3016 87.7873 33.1914 88.9462 35.3156 89.5151C35.6153 89.5952 35.8417 89.2202 36.9959 89.7281C39.8987 91.0043 42.9624 92.6505 46.067 93.988C46.7355 94.2765 46.268 93.4187 47.7204 94.4692C47.8172 94.5404 48.1702 95.1687 48.6684 95.5132C49.0126 95.7519 50.2315 96.1707 50.6491 96.5262C51.0662 96.8815 50.0222 96.5785 50.483 97.0609C50.9508 97.5463 52.3203 98.0599 52.2724 98.5759ZM63.5796 179.1C62.8694 178.028 64.0222 182.364 64.1476 181.214C64.1522 181.153 63.6155 179.153 63.5796 179.1ZM107.872 160.733C106.43 159.284 107.576 161.983 108.668 163.116C109.764 164.244 108.313 161.17 107.872 160.733ZM111.708 156.704C110.374 155.7 113.67 161.143 113.54 159.705C113.534 159.623 111.786 156.762 111.708 156.704ZM35.1499 91.3467C35.2063 91.3668 35.3901 91.107 35.3396 91.0755C34.1156 90.3272 33.7489 90.8473 35.1499 91.3467ZM115.269 152.515C114.64 151.9 114.743 153.025 115.528 153.788C116.164 154.4 116.054 153.279 115.269 152.515ZM42.5054 178.868C42.4898 178.803 42.2577 178.774 42.3143 179.148C42.4971 180.351 42.766 179.967 42.5054 178.868ZM122.544 147.408C121.328 147.976 117.681 144.115 119.161 143.797C119.431 143.738 119.68 145.482 120.218 145.683C121.203 146.044 119.618 143.123 121.145 144.206C121.425 144.404 122.62 147.385 122.546 147.415C122.546 147.413 122.545 147.41 122.544 147.408ZM61.9045 173.974C61.8811 173.919 61.5674 173.948 61.576 174.007C61.7963 175.424 62.4324 175.365 61.9045 173.974ZM29.5406 176.738C29.5368 176.612 28.8649 176.434 28.8342 176.546C28.2239 178.83 29.6739 179.207 29.5406 176.738ZM80.7123 164.531C80.5446 163.069 80.8548 162.777 81.7207 164.376C81.3778 164.4 81.0586 164.5 80.7123 164.531Z" fill="#E22A0A"/>
<path d="M77.6204 20.1596C78.0808 20.3484 77.7899 20.8513 77.3227 21.3036C77.1781 21.4448 76.4002 21.6166 76.266 21.724C76.0044 21.9336 76.4125 21.9426 76.0937 22.167C75.9842 22.2425 74.7588 22.5379 74.6718 22.6091C74.2037 22.9968 74.5756 23.1303 74.3861 23.4416C73.4509 24.9749 73.3256 26.2538 73.1141 27.5933C73.0453 28.0346 72.0836 28.8248 72.6799 29.088C72.7506 29.1183 73.8046 28.7836 73.8947 28.7672C75.2751 28.5198 73.1176 29.0927 72.8591 29.2665C71.8394 29.9547 71.8583 30.3861 72.3694 30.6166C72.5899 30.7136 74.6555 29.9529 73.5152 30.4457C73.4382 30.4793 72.2999 30.7688 72.1914 30.8444C71.9478 31.0152 72.2001 31.1317 72.1315 31.2291C71.9938 31.4187 72.0118 31.4383 72.0369 31.5725C72.0614 31.7587 71.5628 32.1337 71.8739 32.2504C71.9436 32.2743 73.0832 31.8834 73.2988 31.8911C73.514 31.899 73.4663 32.0996 73.2109 32.2371C72.9554 32.3747 72.0402 32.6152 71.8351 32.6862C70.1033 33.2841 72.5943 32.7724 72.6619 32.7801C73.8235 32.9474 72.555 33.7522 72.6881 34.1899C72.7917 34.5204 73.3538 34.7409 73.3844 35.0749C73.4162 35.4734 72.8861 35.9793 73.102 36.3117C73.1235 36.3472 74.4662 35.8984 74.4952 35.941C74.8018 36.3937 74.8017 36.9317 74.036 37.7026C73.958 37.7803 72.7489 38.0738 72.5999 38.1729C71.7138 38.7717 69.5129 39.9676 74.7448 38.5815C74.605 38.849 74.4719 39.1618 73.4848 39.6631C72.8495 39.9861 71.5196 40.2646 72.1167 40.2432C72.2499 40.2388 73.3706 39.8505 73.4846 39.8699C73.9631 39.9517 73.6639 40.2913 74.3122 40.317C74.4468 40.3214 75.4588 39.9991 75.6452 39.9548C77.1565 39.6003 74.7593 40.5159 74.5927 40.6069C73.3509 41.2891 73.9345 41.3291 73.9814 41.5955C73.9916 41.6574 75.3329 41.166 75.3917 41.2103C75.6783 41.4453 75.6558 41.7864 75.1417 42.264C75.024 42.3712 73.8455 42.6737 73.7299 42.7435C73.2347 43.0473 75.4348 42.3933 75.002 42.6707C74.9136 42.7283 73.9159 43.0234 73.8084 43.0625C72.1214 43.6767 74.568 42.9862 74.6278 42.9894C75.4391 43.0147 72.9592 43.972 73.3954 44.1064C73.4501 44.1216 74.6845 43.6592 74.7615 43.726C75.2819 44.1679 75.1211 44.8552 74.2939 45.7223C74.167 45.8567 73.2062 46.0987 73.0919 46.1413C71.3069 46.8116 73.7543 46.0868 73.8546 46.0848C74.5829 46.0895 72.613 46.9528 75.5523 46.1638C75.0489 47.0494 75.8831 47.5012 75.575 48.3204C75.4519 48.6528 75.1433 49.0437 74.4902 49.5534C74.4643 49.5751 73.2661 49.9552 73.2195 49.9968C72.6451 50.5022 74.4782 49.8251 76.802 49.2395C77.3853 49.0918 74.7017 50.1585 74.506 50.2396C73.7839 50.5359 71.9979 51.0915 71.8603 51.1554C70.7824 51.6652 76.6278 49.6491 76.6865 49.8146C76.6786 49.8232 75.5942 50.1697 75.492 50.2205C75.1709 50.3794 75.6136 50.2763 75.2577 50.4463C74.4338 50.8382 71.6054 51.8528 73.3109 51.4345C73.5321 51.3796 76.8374 50.2058 76.7321 50.4084C76.6874 50.4904 76.8352 50.7322 76.6462 50.8802C76.4574 51.0282 75.373 51.3512 75.3286 51.3725C73.9877 52.0657 73.3767 52.1949 71.3249 53.0305C69.2818 53.8654 74.2311 52.0908 74.7988 51.9364C75.365 51.7824 74.254 52.3394 73.8629 52.5192C73.4716 52.6988 72.7786 52.8935 72.5614 53.0071C71.1439 53.7538 75.0538 52.2272 75.8647 52.0169C77.7833 51.5145 74.1572 52.954 73.8531 53.237C73.7708 53.313 74.5942 52.9784 74.6854 52.9865C75.0353 53.0217 73.9232 53.5239 75.0309 53.3053C75.2117 53.2706 77.4604 52.5943 75.8761 53.2708C75.6477 53.3683 74.723 53.6689 74.5412 53.8052C74.2681 54.0092 74.1302 54.2487 74.4712 54.2339C74.7234 54.2226 76.1933 53.582 75.7607 53.8456C75.5676 53.9634 74.662 54.2154 74.3726 54.4099C74.0832 54.6042 74.1948 54.7846 74.2529 54.8471C74.3117 54.9092 75.4327 54.4402 75.5116 54.4173C75.9636 54.2878 76.5637 54.2191 76.567 54.2317C76.937 54.7889 75.2543 56.1077 76.1263 56.4604C76.193 56.4884 77.3684 55.9788 77.3908 55.9781C77.9527 55.9368 74.7437 57.0837 73.7336 57.626C76.1362 56.635 75.7271 56.8788 76.0375 56.8854C76.1889 56.8874 77.1088 56.4781 77.2062 56.4443C78.654 55.9469 76.8487 56.748 76.4811 56.916C75.1284 57.5329 76.7765 56.9254 75.873 57.3393C74.9768 57.7514 73.5901 58.2211 73.6536 58.3261C74.5264 58.0024 76.7408 56.9951 77.1389 56.9269C78.642 56.6639 77.1217 57.9676 77.048 58.2972C76.9723 58.6226 77.1648 58.6345 76.9197 58.9137C76.4765 59.4176 78.0873 58.5991 78.9123 58.4242C79.7371 58.2484 75.6445 59.967 74.7822 60.3761C73.9206 60.7857 74.8296 60.4141 74.3634 60.656C73.8975 60.8981 73.276 61.0968 73.1272 61.2468C72.979 61.3977 74.6138 60.8977 75.5342 60.5119C77.4852 59.6973 79.4725 58.7082 78.8389 59.1997C78.8012 59.2287 77.7225 59.6753 77.6323 59.7622C76.9519 60.439 77.0485 60.7841 76.4719 61.4286C76.3911 61.5183 75.196 62.0271 75.1358 62.0858C74.5063 62.7009 76.4473 61.6837 78.7133 60.7886C75.7693 62.1325 74.0137 63.0522 74.0926 63.2636C74.1388 63.3906 75.4059 62.7641 76.342 62.4131C76.624 62.3068 75.7882 62.8089 76.3954 62.5378C78.3796 61.6509 80.537 60.5249 79.7572 61.1385C79.7198 61.167 78.6346 61.6545 78.5839 61.7154C78.252 62.113 80.3098 61.1481 80.6563 61.2314C80.9283 61.297 79.8239 62.192 79.7143 62.4778C76.4526 64.0898 77.29 63.903 79.5693 62.8522C79.5383 63.0199 79.7293 63.0841 79.4782 63.356C79.3928 63.4491 78.4395 63.8981 78.3404 63.9545C76.7869 64.8389 78.9913 63.7898 79.0895 63.7719C80.0614 63.6317 78.5345 64.7074 80.2787 64.1441C80.3415 64.1239 82.5921 62.974 80.9914 63.8955C80.8811 63.9591 79.8147 64.4006 79.8016 64.5681C79.7881 64.7354 78.714 65.6046 79.8422 65.2331C80.1142 65.1445 81.9826 64.289 80.6121 65.1258C80.426 65.2394 79.7792 65.5669 79.4319 65.7728C78.3261 66.4307 80.5963 65.2592 78.7154 66.3439C76.835 67.4295 75.4753 68.3334 76.8918 67.8061C76.9334 67.7914 78.7387 66.8739 78.7407 66.9449C78.7424 67.0594 78.4409 67.3882 78.504 67.4767C78.5349 67.5187 79.6234 66.8889 79.6479 66.8858C80.4293 66.8477 79.5592 67.5918 79.3142 68.1533C79.2681 68.2591 80.8579 67.5907 79.7373 68.3637C78.5121 69.2125 73.052 72.0948 74.5036 71.6768C75.0863 71.5131 81.989 67.8126 78.5748 70.016C79.6757 69.919 78.0955 71.3365 79.5712 71.0193C79.6368 71.0057 81.5594 69.9645 81.558 70.0214C81.5526 70.1083 80.6904 70.6573 80.6588 70.7366C80.5051 71.0836 81.3579 70.8102 81.3467 71.0588C81.3444 71.1523 80.4206 71.6649 80.4184 71.7773C80.4173 71.8894 81.6462 71.2355 81.1346 71.6895C80.7437 72.034 78.353 73.5752 78.135 73.8567C80.5461 72.4253 80.5417 72.5309 81.2577 72.286C81.3964 72.2382 82.2172 71.7093 82.326 71.6608C82.7872 71.4519 82.1209 71.9135 82.6188 71.6792C82.7385 71.623 83.5599 71.1309 83.704 71.0571C84.9603 70.41 83.1927 71.6502 82.8855 71.867C81.7182 72.6893 82.8095 72.0873 82.3699 72.4444C81.9307 72.8019 81.2697 73.0635 81.0262 73.3186C80.5207 73.843 80.7794 73.9712 80.8426 74.1592C80.8728 74.2312 81.9366 73.5206 81.9663 73.5155C82.3252 73.4814 81.2507 74.3302 83.4675 73.0749C77.9143 76.612 84.0612 72.8216 83.0549 73.701C82.9733 73.7717 80.3345 75.4236 79.9091 75.6044C79.4838 75.7846 80.2591 75.1875 79.6012 75.4776C79.4469 75.5457 76.8896 76.9558 76.729 77.0319C75.4755 77.6293 79.435 75.1869 79.6493 75.0475C81.9591 73.5392 79.1936 75.0403 78.9857 75.1163C78.0349 75.468 78.5102 74.9898 77.8187 75.2188C77.3702 75.3643 74.7555 76.9294 74.7909 76.8074C74.9064 76.4015 78.5042 74.1353 75.2059 75.8016C74.5022 76.1564 71.6708 77.9114 73.8152 76.394C73.9506 76.2988 75.931 74.9417 74.583 75.6397C74.413 75.7277 73.5786 76.2235 73.5009 76.2523C72.9965 76.4359 73.628 75.9848 73.2545 76.0808C72.881 76.1767 72.3393 76.3451 72.5609 76.0724C72.6929 75.9087 74.205 74.9121 74.5695 74.6585C75.6212 73.9304 73.7609 74.8919 75.0635 74.0597C76.373 73.224 78.4683 72.1371 79.2551 71.4954C77.0737 72.7609 74.8307 74.0529 72.6347 75.3216C72.5277 74.9618 73.0618 74.2564 72.7826 73.9934C72.7461 73.9625 71.5927 74.6766 71.523 74.6605C71.2338 74.5888 71.9854 73.9558 71.5473 73.9636C71.205 73.9745 69.8629 74.5172 69.4621 74.5422C71.9251 73.0349 70.9472 73.2939 71.0877 73.0041C71.136 72.9036 71.8116 72.5326 72.0093 72.3708C72.7378 71.7672 70.5477 73.0759 70.1733 73.2283C68.5733 73.8746 73.6159 71.066 73.3779 70.9295C73.3674 70.9219 70.5959 72.267 70.4171 72.3393C69.2555 72.8192 71.3455 71.8051 71.5042 71.6215C71.795 71.2875 72.388 70.8401 71.5086 71.109C71.2488 71.1898 69.4998 71.9872 70.7557 71.191C70.9202 71.0867 71.819 70.6108 71.8662 70.573C72.6473 69.9296 69.8304 71.4381 68.8219 71.8473C67.8138 72.2568 69.6731 71.0555 70.2182 70.7265C71.626 69.8709 70.8726 70.46 71.0175 70.3887C72.7405 69.5378 72.3885 69.5806 72.4865 69.4189C75.2469 67.9368 75.0194 67.9091 72.577 69.2575C72.3104 69.4051 72.6038 69.3347 72.4865 69.4189C69.732 70.7864 69.3094 70.8297 71.7745 69.3456C72.9303 68.6507 74.3528 67.9833 73.7388 68.049C73.4604 68.0763 71.5678 69.1125 71.0024 69.3005C69.711 69.7267 71.3673 68.549 70.9857 68.5C70.8467 68.4814 69.832 69.0905 69.7006 69.096C69.3474 69.1097 70.0762 68.5887 69.6044 68.6621C69.5602 68.6693 68.4734 69.2593 68.4381 69.2246C68.1489 68.9723 68.7178 68.3409 68.5728 67.9995C68.5025 67.8353 67.7506 67.8516 67.7906 67.6209C67.8536 67.2252 69.3055 66.097 68.7938 66.0378C68.4649 65.9972 67.3647 66.5625 66.5701 66.853C65.0286 67.4135 67.5624 65.9278 67.9582 65.7049C67.9716 65.6982 68.3003 65.7126 68.8404 65.3695C70.018 64.7657 67.9642 65.7042 67.9582 65.7049C68.213 65.5593 68.3376 65.1624 68.0978 65.2067C67.9667 65.231 66.9115 65.7402 66.8632 65.7433C65.7385 65.8093 65.2879 65.5386 65.6151 64.9291C65.6337 64.9127 66.8341 64.3872 66.8629 64.3554C67.2958 63.8964 65.7682 64.4058 64.8147 64.602C63.8618 64.7986 64.0872 64.5183 66.1023 63.5115C65.7815 63.4841 66.6081 62.8895 67.1145 62.5391C67.6209 62.1889 65.2686 63.1753 65.2178 63.1847C63.5967 63.4977 64.8608 62.7381 64.9342 62.3237C64.9724 62.1233 64.5015 61.9523 64.1736 61.8868C63.9103 61.8364 64.4311 61.5302 64.0263 61.5487C63.9721 61.5509 62.9262 61.9939 62.8836 62.0051C61.5665 62.3725 64.1686 61.4013 64.6168 61.1871C66.2474 60.4091 67.1145 59.9914 66.2575 60.1327C66.0615 60.1657 62.3001 61.5255 62.0518 61.5336C61.7366 61.5434 63.0839 61.0538 62.7204 61.0782C62.6905 61.0798 61.8689 61.4061 61.8799 61.3276C61.9201 60.9676 62.2745 60.4596 62.0742 60.1847C62.05 60.1459 60.7615 60.7019 60.7047 60.6534C60.4395 60.4257 60.368 60.09 60.8787 59.5821C61.0086 59.4556 61.9443 59.1548 62.2118 59.038C63.8307 58.3317 61.3821 59.0995 61.3281 59.0944C59.9843 59.0125 62.0224 57.8317 60.801 57.6973C60.7304 57.6925 58.0655 58.3994 60.251 57.513C60.3962 57.4534 62.6347 56.5534 61.0519 57.0215C60.9529 57.0506 59.804 57.5241 59.8868 57.3789C59.9695 57.2345 59.1288 57.3424 60.3663 56.7507C60.7558 56.5634 62.9896 55.6668 61.1341 56.1672C61.0053 56.2043 56.8394 57.4208 59.6392 56.3671C60.1002 56.194 63.0947 55.1705 61.5075 55.5453C61.1999 55.6182 60.5515 55.903 60.1076 55.9679C59.4235 56.0681 60.1701 55.6328 58.7854 55.9403C58.5405 55.9955 56.4695 56.5777 57.9819 55.9617C58.2188 55.8653 59.2278 55.5509 59.3238 55.4659C59.7854 55.0622 59.0377 55.0574 59.6547 54.5994C59.8714 54.4382 61.5037 53.9336 61.91 53.706C62.3164 53.479 62.6792 53.1764 61.9106 53.3391C61.1416 53.5015 58.5913 54.4583 58.3415 54.3981C58.1401 54.3493 58.0218 54.2727 57.9631 54.1764C57.7068 53.7581 58.597 52.9629 58.6303 52.4526C58.6365 52.3593 57.733 52.7304 57.6756 52.6141C57.4606 52.1898 56.3404 51.6934 58.1871 50.6734C59.6668 49.8587 60.9929 49.8613 61.5603 49.4212C61.8308 49.2109 58.7771 50.0511 58.6733 50.0536C57.6232 50.092 58.8994 49.479 58.4132 49.3685C58.3123 49.3456 57.105 49.7819 57.0326 49.758C56.7744 49.6795 57.2719 49.3537 57.1281 49.2459C57.0608 49.1985 56.13 49.5043 56.1841 49.4243C56.3026 49.2361 56.6572 48.9909 57.4914 48.5824C57.5674 48.5452 58.7558 48.2621 58.7674 48.1475C58.7827 47.9628 59.5836 47.4893 58.6323 47.581C58.3464 47.6093 56.2082 48.2736 57.6469 47.6932C57.9474 47.5718 60.5243 46.8046 58.2628 47.3556C57.8872 47.4476 54.8213 48.1402 56.7145 47.4264C57.2127 47.2383 59.2901 46.5096 58.9392 46.5452C58.8837 46.5525 57.7462 46.9447 57.6169 46.9239C57.1814 46.8442 57.2402 46.6 56.8183 46.5097C56.7033 46.4863 55.5386 46.9328 55.4052 46.886C55.0366 46.7578 55.2545 46.388 55.5608 46.0577C55.6761 45.9356 56.6786 45.6887 56.7841 45.6501C58.5006 45.0235 56.1287 45.6894 55.9819 45.7004C55.1008 45.7597 56.1627 45.2756 55.8159 45.1878C55.7232 45.1626 54.6103 45.5393 54.5071 45.56C53.4975 45.7567 55.5381 45.2179 55.7411 45.0865C56.3166 44.7167 56.1661 44.5457 55.9677 44.4086C55.8932 44.3587 54.6126 44.8282 54.5607 44.7787C54.2291 44.4933 54.2433 44.0894 54.8587 43.5289C54.9771 43.423 55.9934 43.1617 56.2188 43.0793C57.7956 42.5047 55.5661 43.0267 55.3481 43.0578C54.3533 43.2012 55.2249 42.8794 55.0214 42.8034C54.012 42.4367 54.3749 41.5029 54.5677 40.8174C54.8131 39.926 55.5984 39.0613 55.1404 38.4197C55.1125 38.3785 53.7874 38.8167 53.7461 38.7862C53.2747 38.3733 53.6524 37.7221 53.1181 37.3282C53.0766 37.2952 51.8244 37.7249 51.7151 37.6842C51.4821 37.6033 51.5005 37.4093 51.8657 37.1527C52.0414 37.0283 53.1573 36.8022 53.312 36.6837C53.6746 36.407 53.7159 36.2115 53.4652 36.1082C53.3558 36.065 52.0871 36.5461 52.046 36.4605C51.7396 35.8855 51.3419 35.3488 52.8467 34.2464C52.9501 34.1707 55.5805 33.372 55.0482 33.4283C54.3132 33.6329 53.4511 33.8818 52.6668 34.1047C51.9886 33.3379 52.6522 32.1964 52.5393 31.2679C52.5342 31.2289 51.1527 31.6949 51.1358 31.6213C51.0362 31.1958 50.5316 30.8993 51.8007 30.0725C51.9247 29.991 54.3942 29.3079 53.9859 29.2893C53.9115 29.2867 53.5291 29.192 52.9804 29.2963C52.8978 29.3127 51.7578 29.676 51.7069 29.6249C51.4313 29.3217 51.588 28.8765 52.19 28.3237C52.2893 28.2338 53.5312 27.9443 53.6126 27.8773C54.1806 27.4045 53.1605 27.3584 54.194 26.7667C54.8903 26.3693 57.0265 25.8324 59.0822 25.1397C59.3723 25.0419 59.3864 24.915 60.597 24.5628C63.6411 23.6767 66.9948 22.778 70.2377 21.8271C70.9362 21.6223 70.139 21.6856 71.856 21.2925C71.971 21.2664 72.5638 21.2163 73.1453 21.0795C73.5474 20.9851 74.7706 20.5987 75.2894 20.4922C75.8077 20.3858 74.7863 20.7235 75.4012 20.6169C76.0234 20.5083 77.4179 20.0794 77.6204 20.1596ZM69.3815 60.9783C70.4672 60.4006 66.3255 62.1253 67.3627 61.8224C67.4178 61.8057 69.3283 61.007 69.3815 60.9783ZM75.9928 72.5639C77.6374 71.4547 75.0654 72.8187 73.7917 73.6694C72.5208 74.5217 75.4946 72.9008 75.9928 72.5639ZM77.9761 73.0969C79.238 72.1652 73.7413 75.3685 74.9406 74.8705C75.0086 74.8426 77.9029 73.1512 77.9761 73.0969ZM59.8047 25.4221C59.8616 25.4043 59.8941 25.3067 59.8367 25.321C58.4543 25.669 58.3902 25.8639 59.8047 25.4221ZM80.0618 73.5243C80.773 73.037 79.8465 73.424 78.9616 74.0291C78.2501 74.5166 79.1776 74.1311 80.0618 73.5243ZM71.7943 53.9836C71.8567 53.9594 71.8926 53.8815 71.5374 54.0106C70.3936 54.4266 70.7459 54.3912 71.7943 53.9836ZM81.3887 75.5535C81.4005 75.1183 85.7625 72.1796 85.4576 72.8139C85.4029 72.9294 83.9541 73.5691 83.5977 73.8936C82.95 74.4871 85.8101 72.8383 84.3963 73.9129C84.1378 74.1101 81.3784 75.5849 81.3821 75.5568C81.3843 75.5557 81.3865 75.5546 81.3887 75.5535ZM74.3224 58.8266C74.3763 58.8017 74.3955 58.7023 74.3405 58.7232C73.0095 59.2324 72.9711 59.4355 74.3224 58.8266ZM73.2566 49.7336C73.375 49.6891 73.4257 49.4684 73.3133 49.4993C71.072 50.1413 70.9642 50.5939 73.2566 49.7336ZM79.6288 62.5239C80.9518 61.9666 81.1483 61.9827 79.5708 62.8511C79.6164 62.7287 79.5893 62.6426 79.6288 62.5239Z" fill="#E22A0A"/>
<path d="M186.031 116.99C185.115 115.73 184.742 113.75 184.665 112.164C184.638 111.664 185.46 111.557 185.473 111.197C185.498 110.497 184.894 110.116 184.965 109.402C184.992 109.162 186.241 108.858 186.242 108.618C186.231 107.291 185.44 106.411 185.131 105.234C183.594 99.4134 180.783 94.2299 177.519 90.6193C176.487 89.4507 175.549 87.4716 174.107 87.4331C173.946 87.432 173.618 88.4918 173.559 88.5662C172.713 89.7347 173.622 87.6931 173.447 87.3197C173.25 86.8932 172.987 86.5614 172.688 86.3251C171.595 85.6791 170.356 85.5675 169.25 85.8152C168.585 85.9714 169.156 88.1901 168.559 86.9383C168.515 86.8539 168.712 85.6843 168.531 85.5549C168.118 85.2612 167.305 85.4805 166.965 85.4021C166.305 85.2428 166.192 85.2619 165.554 85.2942C164.684 85.3302 163.533 84.8688 162.555 85.2673C162.349 85.3555 162.79 86.5106 162.479 86.7591C162.372 86.8434 162.2 86.9014 161.999 86.9336C162.094 86.9268 162.069 86.8161 161.983 86.6467C161.857 86.3891 161.563 85.4904 161.482 85.2888C160.665 83.6261 161.094 86.2243 161.114 86.2967C160.521 87.826 158.187 87.9379 156.686 89.5046C155.549 90.6992 154.751 92.3837 153.668 93.6614C152.401 95.1476 150.849 96.1831 149.825 97.8751C149.714 98.0562 151.022 98.6498 150.89 98.871C149.514 101.183 147.95 103.375 145.709 105.261C145.486 105.446 144.6 104.506 144.312 104.654C142.57 105.574 139.063 106.772 143.288 110.309C142.555 111.186 141.669 112.352 140.231 112.728C139.297 112.984 138.411 111.771 138.53 112.773C138.556 112.999 139.716 113.342 139.676 113.637C139.499 114.893 138.576 115.827 138.584 117.151C138.589 117.421 139.563 117.848 139.703 117.996C140.82 119.211 138.125 118.862 137.866 118.964C135.928 119.724 135.901 121.007 135.237 122.289C135.081 122.589 136.538 122.856 136.435 123.166C135.869 124.793 135.032 126.262 133.747 127.512C133.463 127.779 132.504 126.961 132.311 127.063C131.475 127.522 133.484 128.645 132.722 129.109C132.564 129.209 131.657 128.692 131.541 128.67C129.724 128.327 131.868 129.749 131.871 129.877C131.958 131.525 129.168 131.255 128.925 132.716C128.899 132.891 130.258 133.078 130.111 133.536C129.165 136.545 127.502 139.478 125.321 141.951C124.983 142.337 124.206 141.634 124.082 141.615C122.132 141.34 124.36 142.627 124.387 142.81C124.538 144.244 122.116 144.505 124.606 146.445C123.354 148.341 122.579 150.379 121.758 152.456C120.682 155.189 119.746 157.773 117.576 160.218C117.532 160.273 116.329 159.89 116.245 160.003C115.236 161.373 117.212 161.502 119.412 162.807C119.967 163.118 117.014 163.408 116.795 163.466C115.991 163.614 114.169 163.123 114.008 163.188C112.743 163.791 118.898 164.356 118.832 165.16C118.819 165.186 117.693 164.985 117.575 165.048C117.203 165.249 117.639 165.502 117.236 165.697C116.308 166.133 113.29 166.302 115.038 167.153C115.267 167.251 118.765 167.106 118.62 167.801C118.551 168.088 118.708 169.3 118.54 169.659C118.362 170.024 117.212 169.96 117.166 169.988C115.847 171.211 115.179 170.945 113.122 171.955C111.103 173.046 116.195 171.708 116.811 171.763C117.421 171.811 116.43 172.834 116.09 173.164C115.742 173.48 114.983 173.469 114.808 173.716C113.724 175.42 117.437 173.322 118.333 173.34C120.415 173.23 117.108 175.348 117.223 176.314C117.245 176.554 117.918 175.949 118.084 176.063C118.716 176.483 118.002 177.586 119.398 177.533C119.646 177.55 121.754 176.407 120.786 177.868C120.652 178.086 119.833 178.641 119.906 179.021C120.007 179.589 120.553 180.352 121.171 180.414C121.624 180.459 122.251 178.925 122.316 179.596C122.35 179.896 121.479 180.42 121.607 180.932C121.736 181.453 122.667 182.005 123.045 182.177C123.417 182.352 123.818 181.182 123.888 181.128C124.282 180.816 125.181 180.628 125.237 180.655C126.298 181.126 127.272 181.785 128.32 182.445C130.06 183.552 132.019 184.656 134.241 184.577C134.516 184.569 134.535 183.275 134.579 183.261C135.562 182.867 134.335 186.127 134.847 187.352C135.115 184.765 135.427 185.287 136.121 185.085C136.456 184.986 136.403 183.965 136.444 183.867C137.085 182.404 137.174 184.399 137.22 184.81C137.377 186.32 137.894 184.607 138.013 185.615C138.142 186.617 137.497 188.026 138.164 188.067C138.426 187.155 138.165 184.693 138.676 184.341C140.564 183.025 143.811 185.041 145.315 185.224C146.784 185.418 147.265 185.231 148.129 185.543C149.708 186.097 149.074 184.314 149.979 183.445C150.88 182.571 150.67 187.026 150.862 187.971C151.057 188.915 151.154 187.926 151.361 188.439C151.569 188.951 151.227 189.622 151.654 189.793C152.086 189.964 153.096 188.189 153.156 187.182C153.289 185.05 152.621 182.882 153.722 183.57C153.786 183.611 153.692 184.79 153.934 184.887C155.856 185.619 157.785 185.452 159.747 185.972C160.018 186.045 159.975 187.363 160.137 187.419C161.826 188.007 160.946 185.924 161.386 183.391C161.719 186.614 162.509 188.497 163.72 188.302C164.445 188.183 164.066 186.815 164.336 185.751C164.415 185.43 165.096 186.287 165.06 185.616C164.931 183.425 164 181.136 165.348 181.846C165.409 181.881 165.489 183.079 165.681 183.112C166.927 183.329 166.583 181.078 167.711 180.528C168.6 180.096 170.615 181.001 171.755 180.899C172.743 184.402 173.586 183.283 173.234 180.762C173.967 180.64 174.645 180.266 175.428 180.359C175.696 180.39 175.896 181.436 175.963 181.533C177.014 183.056 176.491 180.648 176.598 180.506C177.848 179.05 179.857 180.215 180.543 177.888C180.569 177.803 179.538 175.497 180.721 176.971C180.805 177.071 180.837 178.339 181.552 178.083C181.789 177.997 182.154 178.003 182.548 177.986C183.351 177.946 184.28 177.803 184.462 176.771C184.538 176.393 183.916 174.357 185.211 175.412C185.388 175.554 185.737 176.194 186.046 176.471C187.048 177.341 185.706 175.162 187.288 176.696C188.861 178.234 190.629 178.947 190.563 177.036C190.567 176.975 189.454 175.264 189.726 175.065C190.165 174.747 191.036 174.5 191.43 174.077C191.622 173.87 190.593 173.124 190.611 173.073C191.323 171.306 192.954 171.088 194.479 169.687C194.77 169.416 193.831 167.684 195.338 167.75C197.008 167.77 202.068 171.47 201.714 168.879C201.595 167.754 194.746 163.906 198.974 164.177C198.918 161.445 201.516 159.625 200.605 156.775C200.565 156.647 198.483 155.893 198.559 155.642C198.675 155.267 199.717 155.231 199.831 154.959C200.332 153.833 199.624 152.63 199.919 151.515C200.029 151.09 201.054 151.385 201.184 150.88C201.278 150.514 200.599 150.123 200.518 149.712C200.488 149.555 200.542 149.395 200.749 149.232C201.332 148.78 204.221 148.671 204.653 148.035C201.885 147.589 202.014 147.119 201.418 146.153C201.302 145.966 200.31 145.988 200.206 145.892C199.76 145.497 200.606 145.33 200.115 144.942C199.998 144.848 199.054 144.688 198.904 144.602C197.598 143.853 199.867 143.365 200.261 143.292C201.761 142.984 200.58 142.514 201.209 142.19C201.837 141.874 202.413 142.622 202.837 142.198C203.714 141.315 203.811 140.009 204.067 138.999C204.162 138.597 202.854 138.611 202.838 138.548C202.698 137.633 204.211 137.08 201.832 136.054C208.386 136.919 201.322 135.404 202.889 134.486C203.016 134.415 206.073 135.012 206.434 135.473C206.795 135.934 205.722 136.257 206.305 136.911C206.441 137.068 209.142 138.363 209.296 138.489C210.493 139.478 205.924 138.608 205.665 138.594C202.874 138.462 205.78 139.931 205.95 140.187C206.727 141.37 205.926 142.083 206.472 143.041C206.825 143.664 209.816 144.253 209.651 144.651C209.107 145.975 204.828 145.799 208.257 147.707C208.99 148.112 212.323 148.341 209.581 148.952C209.408 148.989 206.925 149.393 208.36 150.056C208.541 150.138 209.502 150.276 209.572 150.36C209.788 150.625 209.716 150.814 209.614 151.003C209.502 151.206 209.352 151.412 209.504 151.725C209.795 152.318 210.248 153.067 209.828 153.68C209.576 154.048 207.711 154.296 207.244 154.421C205.903 154.758 207.875 155.677 206.294 155.765C204.707 155.846 202.489 154.82 201.356 155.506C203.836 155.964 206.374 156.477 208.864 156.967C208.421 158.996 207.189 160.897 206.698 163.049C206.638 163.32 208.02 163.416 207.987 163.723C207.833 165.026 206.563 165.805 206.446 167.208C206.358 168.299 207.217 169.964 207.024 171.216C204.116 170.627 204.239 172.538 203.357 173.492C203.054 173.821 202.41 173.395 202.037 173.521C200.649 173.977 203.074 174.908 203.234 175.402C203.842 177.569 199.046 174.362 198.277 175.594C198.248 175.645 199.993 178.377 200.029 178.626C200.369 180.15 199.115 178.049 198.571 178.329C197.573 178.829 196.582 178.812 196.369 180.277C196.316 180.703 196.978 182.711 195.47 182.057C195.274 181.97 194.643 181.171 194.551 181.172C192.959 181.23 194.974 183.696 195.015 185.043C195.063 186.384 192.761 185.321 192.232 184.911C190.809 183.898 192.195 184.08 192.134 183.922C191.314 182.145 190.867 182.879 190.288 183.073C188.457 180.532 187.927 181.106 189.691 183.284C189.887 183.52 190.111 183.021 190.288 183.073C191.591 185.906 190.898 186.83 188.546 184.884C187.449 183.965 187.052 182.394 186.159 183.552C185.89 183.892 186.314 184.768 186.582 185.557C186.727 185.977 186.826 186.373 186.747 186.646C186.191 188.455 183.785 187.359 182.76 188.136C182.373 188.425 183.256 189.334 183.002 189.571C182.309 190.208 181.302 189.654 180.657 190.382C180.598 190.449 181.215 191.538 180.964 191.649C179.098 192.496 177.175 192.292 175.202 192.846C174.249 193.117 172.708 194.237 171.678 194.346C169.883 194.556 167.417 193.245 166.057 193.947C165.163 194.401 165.594 195.576 165.329 196.481C164.804 198.238 162.894 195.586 162.646 195.165C162.639 195.152 163.412 194.731 162.874 194.176C162.412 192.91 162.655 195.158 162.646 195.165C162.475 194.899 160.801 194.866 160.508 195.142C160.349 195.294 160.608 196.441 160.521 196.499C158.447 197.842 156.197 198.385 153.875 198.017C153.833 197.996 153.791 196.685 153.694 196.653C152.349 196.172 151.625 197.821 150.568 198.827C149.518 199.83 148.595 199.54 147.9 197.307C147.079 197.613 145.888 196.631 145.215 196.025C144.545 195.421 144.431 197.968 144.369 198.019C142.454 199.61 141.352 198.114 139.404 197.771C138.462 197.604 136.548 197.815 135.475 197.971C134.615 198.101 134.186 197.444 133.375 197.718C133.262 197.754 133.211 198.893 133.173 198.932C132.087 200.149 132.92 197.463 132.814 196.946C132.434 195.063 132.253 194.067 131.016 194.703C130.742 194.851 129.241 198.632 128.667 198.748C127.955 198.897 128.509 197.553 127.769 197.739C127.705 197.753 127.519 198.619 127.106 198.479C125.946 198.093 124.748 197.528 123.524 196.971C122.672 196.586 121.855 196.222 120.966 195.9C120.67 195.788 120.52 197.243 120.072 197.096C117.966 196.407 115.645 195.146 114.039 193.269C113.647 192.802 114.506 192.198 114.567 191.888C114.979 190.038 112.627 191.464 112.427 191.365C108.111 189.459 107.406 185.099 104.387 181.557C104.226 181.419 100.832 180.589 102.736 178.895C102.853 178.76 104.85 177.213 103.073 177.038C102.961 177.021 101.932 177.905 101.781 176.974C101.639 176.07 100.469 174.773 101.605 173.345C101.956 172.863 104.2 171.732 102.185 170.913C102.041 170.909 97.5696 169.499 100.541 168.731C101.032 168.61 104.183 168.596 102.541 167.454C102.225 167.226 101.521 167.66 101.077 167.039C100.396 166.09 101.286 164.899 99.9696 163.675C99.7344 163.465 97.6709 162.395 99.371 161.896C99.6368 161.822 100.663 162.137 100.821 161.808C101.576 160.271 101.163 158.525 102.207 157.15C102.574 156.673 104.182 157.31 104.749 156.879C105.319 156.433 105.998 155.536 105.393 154.787C104.789 154.036 101.997 153.918 102.021 153.023C102.115 150.245 103.545 147.959 104.921 145.811C105.454 145.021 105.971 144.231 106.378 143.402C106.582 142.986 105.535 142.979 105.772 142.341C106.64 139.975 107.472 135.569 110.231 134.373C112.442 133.405 112.739 135.936 113.885 134.962C114.434 134.493 111.8 132.606 111.771 132.422C111.442 130.623 113.15 130.21 113.312 128.773C113.345 128.477 112.058 128.215 112.099 127.969C112.231 127.117 113.097 126.577 113.331 125.798C113.432 125.45 112.511 125.11 112.715 124.84C113.193 124.19 113.854 123.728 115.003 123.421C115.107 123.394 116.024 124.32 116.302 123.819C116.751 123.002 118.067 122.312 117.668 120.952C117.547 120.547 115.524 119.585 117.213 119.625C117.567 119.632 119.921 120.942 118.164 119.222C117.871 118.937 115.624 116.362 117.731 116.64C118.287 116.711 120.458 117.271 120.314 116.774C120.287 116.703 119.112 116.371 119.147 116.028C119.291 114.829 119.924 113.827 120.098 112.629C120.145 112.301 118.822 112.169 118.929 111.696C119.229 110.387 120.211 109.147 121.146 108.18C121.489 107.833 122.258 108.591 122.373 108.612C124.243 108.968 122.201 107.556 122.156 107.33C121.902 105.954 123.332 105.722 123.547 104.668C123.61 104.378 122.479 104.003 122.413 103.904C121.789 102.901 123.442 104.283 123.822 104.066C124.883 103.48 125.375 102.379 125.752 101.391C125.89 101.025 124.488 100.745 124.626 100.423C125.433 98.4856 126.637 96.6497 128.331 95.2713C128.65 95.0166 129.428 95.7603 129.674 95.8148C131.383 96.2185 129.859 94.3224 129.77 94.0503C129.369 92.7988 130.329 93.0085 130.58 92.2776C131.803 88.6709 134.964 85.0771 137.548 82.3474C140.977 78.7773 144.064 76.496 148.577 72.5837C148.877 72.3369 147.712 71.4688 147.983 71.2262C150.337 69.2878 153.374 67.211 159.088 66.2892C160.148 66.1495 161.25 65.9792 162.418 65.7236C162.704 65.6641 162.149 64.3903 162.615 64.2504C163.568 63.9542 164.887 63.929 165.981 64.3103C166.511 64.4942 165.858 65.6534 166.381 65.8166C167.594 66.2016 168.896 66.2994 170.193 66.1522C170.749 66.0883 169.979 64.692 170.713 64.7172C172.788 64.7838 174.887 64.988 176.872 65.4457C180.686 66.287 184.035 68.1372 186.292 70.7097C186.562 71.0151 185.372 73.5064 186.269 73.4682C186.737 72.8637 187.234 72.1161 187.708 71.4524C194.473 75.5546 197.706 81.343 200.891 86.3464C201.027 86.5633 201.999 85.3904 202.27 85.8104C203.814 88.2111 205.538 90.3825 205.558 93.5048C205.561 93.8135 203.231 94.8849 203.94 95.4063C204.069 95.4979 204.906 96.3835 205.542 96.4151C205.636 96.4157 206.607 95.6825 206.812 96.0156C207.975 97.9402 208.706 100.173 208.904 102.463C208.932 102.831 207.616 102.998 207.626 103.262C207.704 105.143 209.313 106.518 208.842 108.487C208.519 109.801 206.316 110.211 204.498 111.521C204.242 111.705 204.432 112.341 203.264 112.819C200.328 114.019 196.972 114.959 193.857 116.274C193.186 116.556 194.211 117.055 192.392 117.215C192.27 117.224 191.513 116.875 190.905 116.954C190.483 117.008 189.35 117.633 188.784 117.632C188.22 117.634 189.143 117.04 188.445 116.956C187.739 116.875 186.432 117.537 186.031 116.99ZM142.261 193.279C141.703 192.035 141.436 196.514 142.149 195.465C142.184 195.409 142.291 193.34 142.261 193.279ZM203.851 160.105C201.742 160.42 204.411 161.692 206.042 161.493C207.676 161.262 204.494 159.991 203.851 160.105ZM203.852 151.828C202.185 152.48 208.463 153.52 207.323 152.393C207.259 152.328 203.949 151.789 203.852 151.828ZM202.963 109.301C202.911 109.331 203.033 109.79 203.092 109.779C204.509 109.487 204.262 108.559 202.963 109.301ZM203.453 144.048C202.558 144.171 203.408 145.104 204.519 144.952C205.411 144.836 204.565 143.901 203.453 144.048ZM115.348 177.446C115.4 177.404 115.282 177.079 114.956 177.269C113.905 177.886 114.464 178.163 115.348 177.446ZM206.112 131.358C205.416 133.162 200.03 133.079 201.113 131.151C201.309 130.804 202.542 132.355 203.119 131.994C204.17 131.338 201.112 129.965 203.047 129.514C203.401 129.433 206.163 131.259 206.118 131.364C206.116 131.362 206.114 131.36 206.112 131.358ZM142.108 187.882C142.1 187.823 141.643 187.749 141.629 187.807C141.316 189.22 142.253 189.371 142.108 187.882ZM116.647 158.809C116.773 158.817 117.144 157.862 117.044 157.796C114.938 156.644 114.151 158.679 116.647 158.809ZM171.8 180.987C171.863 179.476 172.33 179.158 173.231 180.761C172.751 180.811 172.288 180.937 171.8 180.987Z" fill="#E22A0A"/>
<path d="M242.674 4.82143C242.843 6.19929 242.154 7.84834 241.382 9.06108C241.142 9.44142 240.389 9.1108 240.188 9.36809C239.796 9.87196 240.101 10.4441 239.652 10.9332C239.5 11.0968 238.29 10.6758 238.158 10.8521C237.445 11.8198 237.61 12.8627 237.185 13.8845C235.094 18.8956 233.901 24.0021 232.646 29.2423C232.232 30.9779 230.831 32.9698 231.11 34.8324C231.143 35.0498 232.256 35.057 232.342 35.108C233.651 35.9007 231.46 35.4256 231.116 35.8059C229.756 37.3181 229.442 39.1397 229.689 40.7619C229.798 41.4523 232.055 41.0256 230.755 41.5616C230.667 41.5992 229.519 41.2993 229.375 41.469C229.048 41.8543 229.17 42.666 229.042 42.9774C228.791 43.5752 228.791 43.6853 228.714 44.2786C228.598 45.0892 227.916 45.9945 228.09 46.8911C228.131 47.0826 229.353 46.9613 229.527 47.2774C229.699 47.5939 229.518 48.3631 229.21 48.5971C228.901 48.8313 227.971 48.6245 227.75 48.6492C225.891 48.8499 228.323 50.0042 228.374 50.1248C229.23 52.3181 227.617 54.0478 227.442 56.0329C227.311 57.5529 227.649 59.1705 227.462 60.6314C227.236 62.3513 226.47 63.7564 226.455 65.4259C226.453 65.6018 227.879 65.5039 227.878 65.7186C227.873 67.9731 227.555 70.2858 226.455 72.4784C226.343 72.6994 225.123 72.3256 224.937 72.5419C223.827 73.8574 221.244 75.9464 226.596 77.0968C226.33 78.0345 226.049 79.169 224.915 79.955C224.186 80.4621 222.862 79.8623 223.404 80.5617C223.524 80.7192 224.718 80.5848 224.81 80.8158C225.194 81.7849 224.758 82.8065 225.325 83.7922C225.443 83.9917 226.506 83.9883 226.694 84.052C228.22 84.5828 225.628 85.2283 225.435 85.3874C223.993 86.5937 224.5 87.5407 224.421 88.7083C224.402 88.9793 225.84 88.7138 225.873 88.976C226.026 90.3273 225.853 91.7702 225.179 93.0806C225.026 93.3734 223.819 93.0623 223.684 93.2005C223.102 93.8112 225.392 94.0181 224.879 94.6014C224.774 94.7246 223.736 94.624 223.621 94.6438C221.818 94.9542 224.35 95.3378 224.403 95.431C225.138 96.6124 222.468 97.306 222.818 98.4664C222.863 98.6046 224.186 98.324 224.231 98.7101C224.539 101.288 224.14 103.914 223.07 106.469C222.906 106.862 221.919 106.575 221.797 106.598C219.89 106.992 222.44 107.268 222.536 107.396C223.222 108.408 221.081 109.344 224.12 110.023C223.066 114.331 224.826 118.536 222.217 122.822C222.187 122.876 220.928 122.814 220.873 122.922C220.203 124.22 222.149 123.94 224.563 124.724C225.169 124.922 222.308 125.675 222.099 125.741C221.327 125.98 219.451 125.821 219.303 125.898C218.139 126.532 224.315 126.225 224.345 127.011C224.336 127.036 223.195 126.973 223.084 127.044C222.736 127.263 223.196 127.45 222.812 127.665C221.923 128.158 218.927 128.443 220.703 129.074C220.934 129.153 224.432 128.877 224.296 129.577C224.238 129.849 224.354 131.116 224.144 131.473C223.934 131.834 222.793 131.647 222.746 131.674C221.298 132.691 220.662 132.362 218.476 132.948C216.298 133.535 221.542 133.137 222.138 133.299C222.732 133.461 221.537 134.211 221.118 134.403C220.699 134.595 219.971 134.423 219.736 134.587C218.208 135.669 222.366 134.879 223.217 135.157C225.232 135.797 221.377 136.647 221.039 137.39C220.948 137.591 221.825 137.378 221.919 137.545C222.278 138.207 221.09 138.697 222.255 139.392C222.444 139.507 224.825 139.963 223.137 140.48C222.894 140.554 221.913 140.461 221.716 140.763C221.42 141.214 221.264 141.99 221.625 142.446C221.89 142.775 223.457 142.257 222.994 142.73C222.787 142.94 221.826 142.653 221.516 143.043C221.206 143.432 221.32 144.352 221.381 144.697C221.443 145.042 222.638 144.751 222.721 144.773C223.202 144.904 223.842 145.516 223.845 145.573C224.243 148.479 222.476 151.426 223.478 154.25C223.555 154.472 224.811 154.175 224.835 154.207C225.458 154.92 222.004 154.698 220.936 155.375C223.508 154.996 223.077 155.371 223.425 155.88C223.595 156.124 224.577 155.862 224.682 155.874C226.246 156.075 224.319 156.578 223.927 156.697C222.483 157.134 224.26 157.193 223.296 157.489C222.34 157.784 220.84 157.568 220.924 158.082C221.865 158.109 224.229 157.424 224.669 157.761C226.338 159.103 224.827 162.07 224.818 163.31C224.805 164.551 225.037 164.906 224.816 165.65C224.418 166.991 226.124 166.244 227.065 166.862C228.008 167.483 223.572 167.87 222.651 168.142C221.73 168.417 222.719 168.375 222.227 168.605C221.735 168.836 221.043 168.641 220.907 169.008C220.772 169.378 222.603 169.979 223.605 169.911C225.729 169.773 227.838 168.984 227.226 169.959C227.189 170.015 226.013 170.072 225.931 170.278C225.315 171.876 225.579 173.488 225.114 175.107C225.048 175.331 223.74 175.424 223.688 175.558C223.144 176.963 225.182 176.035 227.708 176.189C224.517 176.744 222.67 177.57 222.877 178.536C222.999 179.113 224.352 178.688 225.407 178.817C225.725 178.854 224.877 179.477 225.541 179.389C227.708 179.1 229.979 178.162 229.267 179.305C229.233 179.357 228.047 179.52 228.012 179.676C227.794 180.727 230.026 180.282 230.553 181.178C230.965 181.876 230.011 183.582 230.071 184.544C226.583 185.582 227.645 186.2 230.138 185.756C230.214 186.331 230.548 186.889 230.41 187.553C230.362 187.779 229.324 187.999 229.225 188.06C227.666 189.016 230.057 188.457 230.189 188.541C231.507 189.467 230.22 191.264 232.382 191.732C232.46 191.749 234.809 190.815 233.244 191.845C233.138 191.919 231.915 191.991 232.073 192.575C232.24 193.183 231.52 194.844 232.937 195.034C232.945 195.035 232.954 195.036 232.964 195.036L233.015 195.143C233.432 195.206 235.416 194.952 234.152 195.979C233.976 196.12 233.283 196.344 232.946 196.581C231.87 197.336 234.284 196.487 232.405 197.62C230.525 198.753 229.253 199.933 230.963 200.205C231.013 200.214 232.978 199.682 233.05 199.96C233.161 200.401 232.988 201.147 233.159 201.582C233.243 201.791 234.376 201.227 234.411 201.256C235.592 202.455 234.885 203.851 234.948 205.536C234.957 205.846 236.855 206.096 235.759 207.077C234.563 208.157 228.513 209.554 230.391 210.472C231.15 210.859 238.766 208.911 235.313 211.28C236.171 212.099 236.245 213.16 236.426 214.2C236.592 215.159 236.848 216.096 237.87 216.734C237.965 216.795 240.088 216.201 240.145 216.408C240.226 216.716 239.36 217.286 239.39 217.522C239.492 218.525 240.649 218.968 240.906 219.861C241.007 220.2 239.994 220.526 240.116 220.933C240.239 221.34 241.618 221.008 241.247 221.804C240.963 222.407 238.572 224.004 238.519 224.667C241.064 223.489 241.179 223.87 242.146 224.177C242.333 224.236 243.152 223.686 243.286 223.692C243.85 223.708 243.222 224.268 243.821 224.251C243.965 224.248 244.83 223.836 244.996 223.809C246.444 223.566 244.797 225.109 244.51 225.377C243.423 226.399 244.635 226.044 244.28 226.596C243.926 227.15 243.071 226.996 242.941 227.505C242.672 228.56 243.282 229.452 243.616 230.227C243.754 230.534 244.798 229.762 244.845 229.793C245.443 230.272 244.537 231.506 246.989 230.718C241.308 234.079 247.747 230.809 247.009 232.284C246.948 232.401 244.206 233.879 243.663 233.813C243.12 233.747 243.788 232.905 242.964 232.848C242.77 232.834 239.905 233.623 239.712 233.631C238.204 233.697 242.336 231.558 242.55 231.416C244.861 229.867 241.737 230.639 241.461 230.569C240.199 230.258 240.473 229.33 239.527 229.01C238.913 228.798 236.153 230.09 236.077 229.72C235.825 228.491 239.479 226.282 235.661 226.837C234.847 226.954 231.94 228.6 233.929 226.68C234.054 226.557 235.944 224.947 234.411 225.245C234.218 225.283 233.339 225.695 233.238 225.672C232.581 225.511 233.162 224.927 232.633 224.663C232.102 224.396 231.366 224.115 231.447 223.493C231.492 223.116 232.974 222.001 233.317 221.682C234.306 220.77 232.207 221.193 233.513 220.325C234.828 219.459 237.193 218.983 237.837 217.952C235.515 218.936 233.118 219.914 230.775 220.885C230.301 219.603 230.346 218.111 229.922 216.79C229.855 216.58 229.777 216.377 229.684 216.181C229.596 216.001 228.408 216.686 228.28 216.503C227.747 215.728 228.373 214.649 227.693 213.911C227.162 213.343 225.545 213.084 224.957 212.502C227.529 211.118 226.251 210.423 226.252 209.61C226.251 209.325 226.986 209.093 227.162 208.831C227.81 207.853 225.506 208.997 225.063 208.942C223.173 208.709 228.611 206.771 228.159 205.901C228.137 205.852 225.028 206.279 224.82 206.267C223.466 206.18 225.801 205.829 225.905 205.439C226.095 204.729 226.642 204.078 225.555 203.734C225.233 203.632 223.273 203.863 224.522 202.978C224.685 202.861 225.645 202.523 225.686 202.464C226.341 201.404 223.356 202.551 222.203 202.582C221.052 202.616 222.857 201.212 223.389 200.84C224.772 199.887 224.139 200.807 224.294 200.761C226.151 200.226 225.664 199.913 225.669 199.513C228.529 198.233 228.141 197.812 225.661 199.104C225.39 199.245 225.771 199.39 225.669 199.513C223.553 200.168 222.666 200.2 223.204 199.529L223.399 199.936C223.575 199.615 223.97 199.172 224.602 198.616C225.652 197.696 227.206 197.316 226.235 196.61C225.795 196.281 223.917 197.36 223.193 197.191C221.516 196.743 222.901 194.841 222.227 193.99C221.982 193.681 221.017 194.454 220.81 194.254C220.249 193.691 220.893 192.883 220.238 192.405C220.177 192.363 219.065 192.922 218.979 192.73C218.297 191.249 218.621 189.699 218.169 188.147C217.944 187.381 216.899 186.221 216.822 185.423C216.671 184.018 217.983 181.89 217.296 180.901C216.847 180.231 215.684 180.677 214.787 180.549C213.049 180.296 215.644 178.505 216.058 178.278C216.07 178.261 216.501 178.854 217.042 178.366C218.287 177.873 216.066 178.286 216.058 178.278C216.322 178.122 216.325 176.816 216.042 176.612C215.887 176.503 214.757 176.821 214.697 176.759C213.309 175.255 212.677 173.572 212.903 171.748C212.921 171.713 214.218 171.525 214.244 171.447C214.638 170.349 212.941 169.945 211.866 169.294C210.791 168.638 210.998 167.922 213.141 167.081C212.762 166.504 213.606 165.45 214.125 164.841C214.644 164.231 212.111 164.538 212.055 164.5C210.254 163.35 211.585 162.325 211.614 160.825C211.63 160.099 211.088 158.775 210.722 158.069C210.427 157.506 210.978 157.078 210.535 156.575C210.475 156.506 209.356 156.713 209.31 156.695C207.888 156.235 210.681 156.212 211.159 156.029C212.898 155.363 213.82 154.978 212.89 154.283C212.676 154.119 208.646 154.03 208.379 153.729C208.039 153.336 209.481 153.346 209.089 152.939C209.057 152.903 208.178 153.003 208.189 152.723C208.225 151.427 208.6 149.963 208.389 148.615C208.365 148.436 206.989 148.793 206.93 148.536C206.655 147.331 206.592 145.968 207.151 144.7C207.293 144.388 208.286 144.499 208.572 144.411C210.299 143.878 207.701 143.509 207.645 143.417C206.252 141.301 208.454 139.492 207.216 137.282C207.144 137.157 204.347 136.38 206.677 135.834C206.831 135.796 209.216 135.256 207.551 134.981C207.446 134.964 206.221 135.287 206.323 134.832C206.425 134.377 205.56 133.692 206.892 133.002C207.312 132.783 209.691 132.207 207.749 131.706C207.614 131.678 203.243 130.946 206.217 130.495C206.706 130.422 209.87 130.342 208.22 129.724C207.901 129.606 207.205 129.874 206.751 129.544C206.05 129.039 206.87 128.299 205.437 127.689C205.183 127.583 203.019 127.164 204.635 126.711C204.888 126.64 205.948 126.722 206.059 126.509C206.592 125.504 205.853 124.446 206.558 123.448C206.805 123.09 208.517 123.224 208.965 122.847C209.413 122.47 209.835 121.724 209.046 121.357C208.257 120.99 205.545 121.473 205.314 120.897C204.313 118.365 205.876 115.851 206.093 113.334C206.126 112.959 205.154 113.277 205.132 112.723C205.046 110.647 204.141 107.201 206.228 105.431C207.899 104.03 209.145 105.822 209.829 104.749C210.156 104.234 206.998 103.627 206.9 103.505C205.903 102.284 207.318 101.459 206.907 100.354C206.822 100.126 205.535 100.326 205.477 100.131C205.266 99.4653 205.853 98.7788 205.762 98.1407C205.718 97.8542 204.737 97.8853 204.819 97.6236C205.002 96.9993 205.428 96.4389 206.361 95.8679C206.446 95.8155 207.655 96.2152 207.712 95.7609C207.8 95.025 208.731 94.134 207.822 93.2516C207.548 92.9897 205.31 92.9108 206.873 92.4111C207.2 92.306 209.882 92.5387 207.581 91.8267C207.198 91.709 204.102 90.5249 206.14 90.0634C206.676 89.9418 208.887 89.6644 208.553 89.3437C208.499 89.2998 207.291 89.4238 207.184 89.1632C206.824 88.2613 206.988 87.3412 206.65 86.4105C206.557 86.1618 205.298 86.4747 205.2 86.1051C204.927 85.0881 205.3 83.8411 205.736 82.8689C205.899 82.5106 206.917 82.8116 207.03 82.7903C208.873 82.4505 206.425 82.0807 206.288 81.9312C205.472 81.0027 206.661 80.4148 206.397 79.5949C206.327 79.3694 205.146 79.4649 205.044 79.4154C204.046 78.9038 206.134 79.3556 206.382 79.0785C207.082 78.3027 207.037 77.3925 206.935 76.5587C206.895 76.2522 205.516 76.5156 205.497 76.241C205.355 74.6087 205.588 72.9381 206.438 71.4338C206.6 71.1494 207.635 71.4023 207.878 71.3566C209.577 71.0452 207.337 70.2773 207.13 70.1193C206.181 69.4038 207.124 69.2134 206.991 68.627C206.326 65.7277 207.198 62.3713 207.796 59.7412C208.569 56.3125 209.796 53.8011 209.853 50.4748C209.858 50.264 208.449 50.342 208.435 50.1583C208.323 47.8147 209.093 45.6098 208.939 43.2367C208.929 43.0423 207.585 43.1789 207.524 42.8616C207.391 42.2121 207.55 41.4082 208.038 40.829C208.273 40.5444 209.356 41.0786 209.571 40.79C210.072 40.1187 210.251 39.3594 210.123 38.5958C210.066 38.2703 208.669 38.5948 208.699 38.183C208.881 35.3779 208.98 32.5581 211.066 29.9776C211.209 29.7993 213.958 29.9705 213.486 29.496C212.733 29.3703 211.842 29.2604 211.035 29.1454C211.111 25.0061 212.589 21.1466 213.313 17.0855C213.344 16.9141 211.859 17.0074 211.911 16.674C212.208 14.7397 212.076 12.8439 213.803 11.0902C213.972 10.9165 216.491 11.3965 216.194 10.7667C216.139 10.6554 215.932 9.74145 215.416 9.43383C215.338 9.39076 214.131 9.36877 214.139 9.08435C214.208 7.42777 214.741 5.78439 215.718 4.29472C215.878 4.05451 217.091 4.53056 217.216 4.36143C218.092 3.16199 217.367 1.58093 218.715 0.513128C219.622 -0.199902 221.743 0.469782 223.954 0.380072C224.266 0.367387 224.4 -0.141983 225.648 0.0387574C228.786 0.492181 232.169 1.31135 235.52 1.76495C236.241 1.86322 235.582 1.05175 237.249 1.74556C237.361 1.79325 237.854 2.38302 238.423 2.60203C238.816 2.75407 240.106 2.81227 240.598 3.07074C241.09 3.32887 239.999 3.34211 240.564 3.7281C241.137 4.11483 242.596 4.22737 242.674 4.82143ZM216.465 162.188C217.613 161.555 213.159 162.103 214.293 162.462C214.354 162.478 216.408 162.22 216.465 162.188ZM233.521 216.363C235.119 215.043 232.26 215.724 231.008 216.709C229.764 217.707 233.039 216.768 233.521 216.363ZM237.402 221.67C238.527 220.376 232.683 222.894 234.179 223.074C234.264 223.085 237.337 221.746 237.402 221.67ZM224.225 2.53475C224.285 2.53803 224.402 2.17692 224.346 2.1585C222.972 1.73068 222.737 2.45439 224.225 2.53475ZM241.493 226.658C242.172 226.085 241.001 225.944 240.156 226.656C239.477 227.229 240.649 227.372 241.493 226.658ZM218.855 137.544C218.921 137.533 218.965 137.259 218.588 137.288C217.374 137.38 217.74 137.736 218.855 137.544ZM246.237 236.092C245.755 234.59 250.036 231.401 250.262 233.18C250.303 233.503 248.467 233.337 248.218 233.899C247.765 234.924 250.929 233.873 249.674 235.316C249.443 235.579 246.254 236.182 246.23 236.093C246.232 236.092 246.235 236.092 246.237 236.092ZM221.764 161.176C221.822 161.159 221.827 160.785 221.767 160.785C220.329 160.78 220.318 161.537 221.764 161.176ZM220.965 121.879C221.091 121.856 221.189 121.003 221.072 120.977C218.733 120.584 218.528 122.318 220.965 121.879ZM229.982 184.586C231.467 184.544 231.76 184.915 230.139 185.753C230.115 185.362 230.012 184.987 229.982 184.586Z" fill="#E22A0A"/>
<path d="M264.605 113.582C267.314 112.806 270.942 112.697 273.758 112.848C274.632 112.895 274.323 113.747 274.93 113.814C276.125 113.944 277.164 113.387 278.351 113.573C278.746 113.638 278.475 114.956 278.885 114.995C281.105 115.207 283.168 114.546 285.371 114.447C296.396 113.923 307.037 112.377 317.768 110.25C321.275 109.555 325.789 109.478 329.096 107.869C329.486 107.679 328.898 106.708 328.947 106.596C329.7 104.878 330.007 107.127 330.87 107.146C334.325 107.204 337.751 105.965 340.181 104.273C341.195 103.553 339.119 102.151 340.725 102.703C340.837 102.737 341.124 103.914 341.47 103.872C342.305 103.752 343.379 102.87 343.868 102.652C344.831 102.232 344.95 102.131 345.662 101.579C346.588 100.884 347.839 100.284 347.79 99.7068C347.767 99.6108 346.646 99.1701 346.467 99.0685C346.398 99.0388 346.358 99.0465 346.348 99.0944C346.364 99.04 346.484 98.934 346.665 98.8513C346.95 98.722 347.894 98.7539 348.111 98.7203C349.025 98.5376 348.818 98.1335 348.351 97.8903C347.888 97.6389 347.179 97.5195 347.133 97.4731C345.491 95.5534 344.81 92.0802 342.324 89.323C340.424 87.23 337.799 85.4515 335.689 83.6035C333.176 81.3995 331.232 79.1336 328.413 77.3145C328.118 77.124 327.652 78.5212 327.293 78.2931C323.458 75.8609 319.676 73.3674 316.12 70.2954C315.763 69.9858 316.889 69.1899 316.565 68.8145C314.599 66.5408 311.561 62.2389 307.67 66.3742C306.042 65.3442 304.03 64.1686 302.895 62.4704C302.16 61.3767 303.7 60.5768 302.206 60.551C301.869 60.5448 301.765 61.792 301.299 61.7019C300.848 61.6149 300.405 61.4859 299.965 61.3372C299.198 61.1335 298.63 60.9781 298.27 61.5014C298.177 61.6437 298.394 62.6858 298.412 62.8765C298.508 63.6478 298.467 63.3936 298.172 63.0025C297.893 62.6051 297.4 62.0842 297.286 62.0409C295.482 61.4511 294.551 63.0651 293.402 64.5452C293.12 64.9078 294.582 65.332 294.364 65.6992C293.247 67.5693 291.946 69.7242 290.353 71.7508C289.994 72.2055 289.091 71.2415 288.861 71.4386C287.858 72.339 289.878 73.4671 289.003 74.3428C288.821 74.5332 287.899 74.0329 287.776 74.0337C285.841 74.0699 288.013 75.5418 288.008 75.7224C287.973 78.1141 285 78.7445 284.738 81.0718C284.711 81.3473 286.141 81.1103 285.993 81.8538C285.33 85.2328 284.492 88.7132 283.507 92.1451C283.034 93.8164 282.519 95.4235 281.953 97.0324C281.68 97.8123 280.781 97.1039 280.653 97.1371C278.651 97.707 281.11 98.5848 281.171 98.8547C281.59 100.972 279.24 102.71 282.119 104.408C280.159 113.064 281.519 121.747 279.047 130.499C279.019 130.61 277.757 130.448 277.706 130.671C277.09 133.405 279.028 132.806 281.495 134.44C282.115 134.849 279.312 136.35 279.109 136.486C278.358 136.968 276.465 136.631 276.323 136.787C275.218 138.076 281.373 137.49 281.493 139.089C281.487 139.141 280.336 139.015 280.233 139.159C279.911 139.608 280.395 139.988 280.038 140.429C279.214 141.443 276.251 142.082 278.133 143.37C278.378 143.534 281.835 142.901 281.82 144.358C281.809 144.948 282.159 147.442 282.031 148.189C281.897 148.924 280.713 148.586 280.671 148.642C279.443 150.747 278.734 150.104 276.68 151.399C274.642 152.706 279.805 151.669 280.443 151.972C281.078 152.27 280.079 153.864 279.715 154.287C279.349 154.705 278.569 154.385 278.38 154.736C277.161 157.055 281.104 155.196 282.04 155.716C284.262 156.95 280.652 158.837 280.575 160.388C280.554 160.797 281.359 160.303 281.511 160.63C282.102 161.918 281.097 163.023 282.543 164.32C282.782 164.55 285.348 165.206 283.883 166.427C283.672 166.603 282.647 166.513 282.584 167.15C282.485 168.092 282.701 169.717 283.275 170.54C283.698 171.146 285.013 169.925 284.783 170.92C284.681 171.364 283.574 170.916 283.46 171.733C283.339 172.536 283.948 174.354 284.201 175.008C284.458 175.68 285.488 174.925 285.583 174.954C286.141 175.155 287.128 176.221 287.167 176.329C288.14 178.873 288.764 181.453 289.538 183.861L288.802 182.912C289.988 184.503 293.286 186.027 296.366 186.395C296.826 186.454 296.828 185.136 296.901 185.132C298.557 184.971 296.603 188.012 297.42 189.365C297.833 186.794 298.333 187.393 299.521 187.343C300.096 187.316 299.994 186.269 300.064 186.178C301.136 184.832 301.277 186.865 301.355 187.29C301.609 188.848 302.506 187.224 302.707 188.266C302.906 189.3 301.835 190.6 302.898 190.762C303.347 189.894 302.975 187.366 303.83 187.11C307.103 186.164 312.602 188.789 315.065 189.251C317.606 189.73 318.341 189.627 319.802 190.11C322.423 190.973 321.575 189.079 323.29 188.407C325.009 187.732 323.822 192.081 323.976 193.053C324.13 194.024 324.475 193.069 324.727 193.616C324.978 194.164 324.285 194.756 324.958 195.011C325.606 195.264 327.606 193.726 327.931 192.751C328.615 190.685 327.939 188.407 329.7 189.327C329.802 189.381 329.369 190.518 329.764 190.667C332.79 191.802 336.066 192.085 339.202 193.08C339.636 193.218 339.162 194.489 339.41 194.584C341.951 195.574 341.163 193.332 342.744 190.991C342.224 194.201 342.918 196.228 344.925 196.361C346.11 196.441 345.986 195.018 346.813 194.066C347.06 193.779 347.858 194.794 348.049 194.139C348.677 191.996 347.995 189.525 350.023 190.601C350.112 190.652 349.759 191.825 350.072 191.913C352.037 192.486 352.385 190.228 354.585 190.06C356.341 189.929 359.227 191.448 361.209 191.758C361.027 195.392 362.871 194.637 363.719 192.161C364.97 192.315 366.346 192.229 367.571 192.623C367.98 192.757 367.668 193.799 367.715 193.915C368.448 195.73 369.087 193.312 369.361 193.227C372.34 192.409 374.696 194.343 377.566 192.631C377.669 192.569 377.914 190.049 378.611 191.918C378.656 192.047 377.68 193.165 379.013 193.298C380.372 193.432 382.767 194.864 384.667 193.749C385.119 193.481 386.335 191.465 387.178 193.093C387.291 193.314 387.139 194.035 387.3 194.443C387.82 195.744 388.198 193.199 388.794 195.387C389.391 197.575 390.72 199.239 392.64 197.793C392.698 197.751 393.209 195.739 393.781 195.787C394.702 195.864 396.01 196.32 396.986 196.332C397.453 196.337 397.186 195.072 397.268 195.051C400.457 194.428 402.606 195.6 405.984 196.164C406.611 196.27 408.408 194.595 409.565 195.976C410.84 197.488 409.356 203.63 412.411 202.224C413.654 201.661 415.343 193.864 417.435 197.963C421.711 197.042 425.547 199.188 429.85 197.826C430.041 197.766 430.677 195.591 431.123 195.628C431.785 195.688 432.132 196.715 432.606 196.79C434.143 197.054 435.598 196.607 437.078 196.469L437.096 196.469C437.537 196.442 437.974 196.441 438.407 196.492C439.132 196.575 438.831 197.618 439.678 197.719C440.559 197.821 441.221 196.462 442.337 197.196C443.234 197.759 443.905 200.645 445.073 201.051C445.304 198.257 446.082 198.361 447.588 197.725C447.878 197.602 447.647 196.607 447.788 196.499C448.366 196.036 448.781 196.877 449.333 196.37C449.47 196.249 449.549 195.295 449.665 195.142C450.657 193.803 451.888 196.069 452.104 196.466C452.896 197.966 453.455 196.768 454.114 197.396C454.76 198.024 453.647 198.618 454.424 199.037C456.07 199.91 458.253 200.011 459.958 200.306C460.628 200.416 460.358 199.085 460.458 199.071C461.957 198.965 463.115 200.555 464.399 198.219C464.061 204.877 465.398 197.744 467.171 199.558C467.319 199.709 466.654 202.752 465.996 203.05C465.324 203.345 464.692 202.196 463.731 202.728C463.5 202.848 461.869 205.507 461.721 205.662C460.363 206.825 460.952 202.216 460.922 201.951C460.6 199.105 458.74 202.017 458.376 202.19C456.582 202.957 455.251 202.153 453.767 202.718C452.814 203.085 452.402 206.108 451.728 205.953C449.38 205.436 448.873 201.136 446.312 204.652C445.775 205.404 446.061 208.759 444.473 206.033C444.352 205.86 443.246 203.391 442.383 204.861C442.276 205.046 442.224 206.016 442.093 206.09C441.225 206.57 440.741 205.769 439.794 206.092C438.846 206.415 437.777 206.917 436.716 206.54C436.695 206.532 436.674 206.523 436.652 206.512L436.92 206.52C436.29 206.219 435.536 204.503 435.246 204.07C434.398 202.781 433.437 204.857 432.928 203.304C432.415 201.743 433.506 199.403 432.111 198.377C432.017 200.898 431.854 203.484 431.728 206.018C428.67 205.878 425.562 205.008 422.484 205.063C422.101 205.072 422.468 206.435 422.056 206.48C420.303 206.662 418.779 205.667 416.968 206.016C415.564 206.291 414.017 207.696 412.523 208.026C411.681 205.122 409.484 206.055 407.924 205.757C407.377 205.654 407.432 204.884 407.046 204.624C405.568 203.661 406.213 206.226 405.793 206.618C403.996 208.29 403.978 202.516 401.925 202.61C401.816 202.613 400.419 205.657 400.233 205.844C399.033 207.064 400.067 204.769 399.336 204.523C398.001 204.075 397.089 203.317 395.506 204.177C395.044 204.432 393.905 206.321 393.068 204.814C392.955 204.617 393.048 203.602 392.955 203.54C391.265 202.501 391.136 205.694 390.131 206.749C389.125 207.803 387.695 205.556 387.412 204.911C386.668 203.244 388.039 204.226 388.087 204.066C388.647 202.161 387.55 202.46 386.729 202.274C386.71 199.139 385.52 199.292 385.866 202.093C385.905 202.399 386.572 202.126 386.729 202.274C385.914 205.325 384.587 205.68 383.258 202.765C382.637 201.399 383.307 199.849 381.286 200.36C380.371 200.591 380.653 202.758 379.835 203.32C377.919 204.601 375.582 202.509 373.694 202.759C373.007 202.85 373.636 204.054 373.155 204.157C371.872 204.432 370.793 203.506 369.52 203.912C369.405 203.95 369.636 205.196 369.245 205.197C366.327 205.231 363.678 204.332 360.621 204.179C359.093 204.103 356.399 204.664 354.859 204.454C352.124 204.094 348.959 202.132 346.604 202.44C345.092 202.637 345.354 203.89 344.669 204.695C343.348 206.257 341.265 203.203 341.011 202.733C341.002 202.718 342.315 202.504 341.662 201.829C341.34 200.485 341.027 202.728 341.011 202.733C340.828 202.43 338.303 201.992 337.744 202.192C337.454 202.302 337.536 203.481 337.386 203.517C333.852 204.338 330.365 204.389 326.845 203.556C326.784 203.528 326.983 202.229 326.84 202.178C324.859 201.433 323.415 202.918 321.624 203.711C319.87 204.508 318.517 204.056 317.736 201.717C316.44 201.872 314.705 200.688 313.708 199.967C312.725 199.249 312.293 201.765 312.193 201.805C309.062 203.06 307.526 201.394 304.525 200.723C303.055 200.396 300.098 200.285 298.408 200.242C297.151 200.232 296.366 199.463 295.129 199.582C294.959 199.596 294.874 200.741 294.816 200.773C293.152 201.79 294.412 199.227 294.245 198.68C293.578 196.666 293.369 195.642 291.298 195.938C290.863 196.017 288.466 199.47 287.455 199.363C286.203 199.23 287.243 198.095 285.808 197.902C285.687 197.882 285.377 198.72 284.576 198.33C283.075 197.566 281.191 196.592 278.822 194.43L275.898 190.66C275.154 188.78 274.541 186.977 273.803 185.278C273.641 184.894 272.537 185.914 272.278 185.359C271.051 182.706 270.104 179.747 269.943 176.967C269.912 176.292 270.971 176.401 271.209 176.181C272.648 174.851 269.845 174.37 269.745 174.191C267.24 169.801 268.663 165.651 266.662 161.11C266.55 160.885 263.468 159.319 265.64 158.022C265.783 157.93 268.012 156.662 266.259 156.141C266.15 156.107 265.014 156.866 264.983 155.867C264.953 154.88 263.899 153.442 265.068 151.912C265.436 151.432 267.689 150.155 265.633 149.131C265.488 149.064 260.955 147.632 263.855 146.595C264.333 146.43 267.487 146.205 265.723 144.89C265.382 144.639 264.73 145.224 264.218 144.518C263.43 143.431 264.138 141.807 262.626 140.502C262.358 140.278 260.136 139.346 261.707 138.379C261.954 138.23 263.024 138.412 263.114 137.96C263.545 135.804 262.734 133.608 263.397 131.406C263.631 130.627 265.349 130.974 265.786 130.178C266.222 129.385 266.634 127.788 265.847 126.972C265.06 126.159 262.343 127.085 262.119 125.836C261.15 120.359 262.935 114.977 263.556 109.607C263.649 108.809 262.627 109.404 262.7 108.214C262.935 103.852 262.914 96.1757 265.551 92.7336C267.643 90.0077 268.318 93.9327 269.333 91.7782C269.642 91.1215 268.576 90.2037 267.744 89.5382C267.266 89.1465 266.865 88.8418 266.847 88.7346C266.318 85.848 268.074 84.2389 268.204 81.7345C268.232 81.2147 266.869 81.4168 266.908 80.9738C267.036 79.4478 267.985 78.0398 268.27 76.6173C268.397 75.9716 267.421 75.8226 267.661 75.2576C268.225 73.9097 269.002 72.7876 270.323 71.7177C270.443 71.6238 271.328 72.8247 271.707 71.829C272.326 70.2013 273.902 68.5252 273.828 66.2763C273.802 65.6146 271.752 64.6939 273.717 64.0796C274.135 63.9459 276.406 65.4179 274.971 63.0098C274.706 62.643 273.159 58.7157 275.672 58.4285C276.321 58.3632 278.682 58.6846 278.816 57.8284C278.83 57.704 277.571 57.4426 277.842 56.7984C278.857 54.5063 280.589 52.3576 282.593 49.8749C283.157 49.1931 281.326 49.2106 282.239 48.1991C284.633 45.456 290.141 42.2926 295.666 42.0645C297.632 41.9905 296.374 43.1682 296.537 43.2605C298.746 44.8835 299.942 42.568 300.751 42.4916C303.483 42.2796 305.553 43.1266 307.311 44.0633C307.89 44.4497 308.464 44.8352 309.187 45.0124C309.665 45.1329 309.822 43.9194 309.952 43.8624C311.289 43.3334 309.75 44.9594 310.236 45.4291C311.596 46.7536 313.422 47.4922 315.107 48.1334C315.725 48.3672 315.646 46.8184 316.197 47.0442C319.479 48.3644 322.705 50.1763 325.36 52.5014C325.86 52.9422 324.993 53.6611 324.995 53.936C324.988 55.8463 327.279 54.5201 327.669 54.4939C329.411 54.3496 329.414 55.4273 330.597 55.9319C336.358 58.3492 342.504 63.2639 346.995 67.4292C352.872 73.017 356.821 77.6793 362.012 85.8035C362.329 86.3405 363.236 85.0995 363.538 85.5828C365.923 89.6613 368.448 95.7423 366.634 103.906C365.468 108.654 363.062 111.87 361.039 114.234C360.553 114.784 362.257 114.931 361.473 115.862C359.793 117.829 357.64 119.361 355.767 120.097C354.897 120.427 355.281 118.816 354.433 119.154C352.409 119.956 350.61 120.832 349.018 121.864C348.323 122.311 350.043 122.972 349.077 123.464C342.717 126.67 336.783 128.841 330.333 128.92C329.887 128.924 328.766 126.388 328.041 127.141C328.185 127.893 328.432 128.755 328.625 129.548C320.137 132.383 311.565 133.277 303.074 134.783C302.712 134.847 303.615 136.156 302.912 136.288C298.945 137.032 295.054 138.144 290.773 137.406C290.342 137.336 290.124 134.774 288.987 135.359C288.769 135.468 287.075 136.097 286.696 136.722C286.646 136.816 287.168 137.942 286.596 138.071C283.233 138.807 279.678 139.086 276.243 138.863C275.683 138.826 276.071 137.48 275.671 137.442C272.82 137.186 270.017 138.569 267.257 137.789C265.417 137.26 265.754 134.99 264.534 132.972C264.362 132.687 263.276 132.788 263.049 131.546C262.475 128.425 262.524 124.914 261.851 121.595C261.708 120.88 260.377 121.853 260.99 119.994C261.034 119.87 261.992 119.149 262.164 118.523C262.284 118.09 261.791 116.863 262.078 116.291C262.365 115.718 262.908 116.728 263.414 116.031C263.918 115.326 263.459 113.918 264.605 113.582ZM309.297 196.72C308.507 195.381 307.773 199.809 308.953 198.881C309.011 198.831 309.339 196.786 309.297 196.72ZM425.665 201.625C424.447 199.624 423.541 202.517 424.395 204.061C425.25 205.604 426.037 202.231 425.665 201.625ZM438.616 200.445C437.231 198.818 436.715 205.163 438.325 203.95C438.418 203.882 438.696 200.539 438.616 200.445ZM268.708 131.762C268.686 131.705 267.9 131.758 267.889 131.819C267.674 133.289 269.25 133.181 268.708 131.762ZM451.482 199.698C451.076 198.798 449.73 199.686 450.194 200.797C450.551 201.689 451.959 200.814 451.482 199.698ZM278.437 160.863C278.5 160.835 278.449 160.277 278.08 160.362C276.894 160.638 277.386 161.336 278.437 160.863ZM472.003 204.094C469.795 202.511 469.188 196.78 472.824 198.959C473.416 199.357 470.715 199.823 471.336 200.632C472.305 202.018 474.983 199.813 475.313 202.16C475.36 202.576 472.098 204.164 471.995 204.098C471.998 204.096 472 204.095 472.003 204.094ZM309.453 191.305C309.447 191.245 308.693 191.088 308.66 191.142C308.053 192.498 309.588 192.819 309.453 191.305ZM277.773 128.508C277.897 128.466 277.991 126.684 277.876 126.637C275.535 125.723 275.336 129.347 277.773 128.508ZM361.236 191.856C362.143 190.461 363.122 190.333 363.715 192.159C362.888 192.029 362.077 191.981 361.236 191.856Z" fill="#E22A0A"/>
<path d="M424.713 96.1335C422.549 93.2789 420.504 89.0139 419.187 85.5983C418.774 84.5305 419.748 84.6262 419.495 83.8709C418.999 82.3917 417.951 81.3429 417.524 79.834C417.384 79.3297 418.791 79.2621 418.621 78.7492C417.692 75.9568 416.082 73.6852 414.934 70.892C413.814 68.1611 412.7 65.391 411.647 62.4499C410.832 60.1075 409.916 57.645 409.345 54.0991C408.701 50.8549 409.067 44.3494 412.867 40.2295C420.338 33.015 425.41 33.761 430.324 32.638C433.164 32.2364 435.926 31.9985 438.673 31.8405C443.671 31.547 449.611 32.455 454.617 31.9574C455.202 31.8978 454.854 30.7924 454.966 30.7013C456.742 29.3116 456.135 31.5419 457.274 31.8498C461.791 33.0721 466.747 33.4101 471.12 33.3476C472.982 33.3213 471.32 30.9714 473.079 32.3669C473.2 32.4618 472.624 33.5873 473.118 33.759C474.236 34.1431 476.429 34.1664 477.306 34.3667C478.994 34.7559 479.277 34.7809 480.891 35.0165C483.102 35.3533 485.617 36.3509 488.029 36.5432C488.545 36.5811 488.101 35.2691 488.952 35.2261C489.809 35.1809 491.945 35.7379 492.607 36.1848C493.267 36.6271 492.744 37.4782 492.822 37.7186C493.44 39.7319 496.486 37.8996 496.839 37.9374C497.888 38.0288 498.928 38.214 499.903 38.4554C504.615 39.6368 508.385 42.1796 512.629 44.3647C516.535 46.367 520.831 48.6099 524.105 51.4592C527.996 54.862 530.479 58.5639 533.387 62.6094C533.692 63.0428 534.516 61.7318 534.896 62.2727C538.326 67.1754 540.667 72.8289 541.518 78.6128C541.66 79.603 541.768 80.594 541.839 81.5845C541.884 82.2375 540.493 81.6937 540.462 82.3547C540.355 86.4675 538.64 92.5525 544.182 94.4431C544.194 97.1287 544.094 100.383 543.008 102.733C542.308 104.243 540.96 102.78 541.525 104.615C541.648 105.03 542.841 104.505 542.935 105.132C543.33 107.786 542.805 110.635 543.214 113.272C543.3 113.809 544.37 113.75 544.549 113.916C545.994 115.318 543.236 117.194 543.002 117.613C541.253 120.91 541.457 123.438 540.935 126.594C540.812 127.323 542.358 126.679 542.289 127.393C541.909 131.095 541.088 134.848 539.764 138.239C539.466 138.989 538.418 138.035 538.215 138.38C537.332 139.91 539.505 140.731 538.692 142.202C538.523 142.513 537.544 142.112 537.42 142.149C535.467 142.724 537.78 144.06 537.784 144.313C537.88 147.54 534.863 148.91 534.599 151.916C534.57 152.274 536.026 151.765 535.867 152.758C534.87 159.073 533.201 165.465 531.591 171.359C531.511 171.676 531.428 171.985 531.342 172.296C531.043 173.379 530.162 172.465 530.032 172.522C528.006 173.362 530.405 174.463 530.426 174.882C530.443 178.102 527.839 180.752 525.536 184.917C519.562 186.777 516.582 184.987 513.437 184.235C510.369 183.253 507.637 182.154 504.911 180.932C499.716 178.571 494.879 175.857 490.532 172.249C490.418 172.158 491.199 171.141 490.969 170.964C488.217 168.836 487.94 170.874 484.881 172.045C484.104 172.335 483.819 168.996 483.768 168.738C483.603 167.794 484.933 166.359 484.83 166.142C483.94 164.403 481.513 170.094 479.642 169.209C479.588 169.172 480.32 168.26 480.211 168.083C479.877 167.532 479.201 167.714 478.89 167.135C478.179 165.802 479.052 162.892 476.633 163.705C476.326 163.815 475.188 167.148 473.589 166.241C472.951 165.872 469.978 164.618 469.237 164.056C468.498 163.49 469.513 162.697 469.474 162.627C467.815 160.291 468.906 160.085 468.618 157.564C468.312 155.049 466.623 160.042 465.938 160.395C465.252 160.743 464.063 158.937 463.799 158.375C463.542 157.813 464.321 157.347 464.041 156.977C462.162 154.548 462.035 158.999 460.942 159.474C458.389 160.622 458.278 156.441 456.627 155.482C456.184 155.225 456.29 156.196 455.844 156.135C454.102 155.898 453.438 154.413 451.216 154.944C450.845 155.026 448.743 156.884 448.184 154.984C448.102 154.71 448.73 153.86 448.068 153.479C447.057 152.9 445.126 152.29 443.921 152.433C443.017 152.535 443.755 154.266 442.767 153.617C442.326 153.332 443.338 152.525 442.483 152.067C441.633 151.597 439.277 151.445 438.413 151.481C437.539 151.502 438.012 152.724 437.94 152.804C437.678 153.091 436.984 153.432 436.5 153.673C436.185 153.821 435.944 153.926 435.893 153.93C429.675 154.24 422.5 157.362 424.461 164.049C424.614 164.516 425.794 163.914 425.831 163.983C426.736 165.283 423.098 164.992 422.456 166.671C424.842 165.605 424.614 166.478 425.444 167.48C425.85 167.955 426.581 167.18 426.698 167.182C428.427 167.166 427.043 168.628 426.819 169.024C425.947 170.394 427.757 169.883 427.239 170.826C426.752 171.793 424.933 171.876 425.836 172.948C426.779 172.622 428.045 170.356 428.943 170.803C432.139 172.479 436.473 177.84 439.202 179.486C441.792 181.13 442.808 181.383 444.268 182.424C447.064 184.311 446.611 182.141 448.778 182.126C449.225 182.119 449.477 182.272 449.594 182.529C450.016 183.51 448.456 186.083 448.403 186.873C448.34 187.868 448.981 187.059 449.144 187.676C449.311 188.295 448.336 188.632 449.09 189.113C449.869 189.61 452.661 188.757 453.246 187.892C454.505 186.074 454.174 183.65 456.074 185.059C456.185 185.142 455.438 186.133 455.88 186.392C459.319 188.385 463.293 189.472 466.971 191.127C467.486 191.358 466.715 192.514 467.013 192.663C470.034 194.188 469.372 191.795 471.637 189.791C470.574 192.872 471.16 195.029 473.626 195.534C475.122 195.839 475.134 194.4 476.291 193.605C476.632 193.364 477.49 194.509 477.8 193.89C478.814 191.864 478.255 189.298 480.613 190.698C480.716 190.763 480.156 191.872 480.53 192.01C482.958 192.907 483.576 190.706 486.323 190.865C488.423 190.98 492.006 192.906 494.357 193.448C493.806 197.046 496.244 196.532 497.48 194.16C499.014 194.461 500.724 194.529 502.219 195.055C502.734 195.235 502.263 196.24 502.316 196.361C503.109 198.252 504.073 195.906 504.42 195.849C508.214 195.345 510.997 197.494 514.71 196.038C514.841 195.985 515.28 193.489 516.039 195.414C516.088 195.547 514.821 196.582 516.462 196.826C518.11 197.072 521.119 198.702 523.518 197.726C524.096 197.491 525.698 195.565 526.682 197.251C526.814 197.479 526.593 198.189 526.777 198.608C527.376 199.945 527.957 197.428 528.616 199.655C529.266 201.882 530.924 203.638 533.338 202.309C533.415 202.27 534.107 200.29 534.836 200.373C535.996 200.506 537.653 201.04 538.867 201.106C539.449 201.136 539.158 199.858 539.26 199.841C543.218 199.389 545.952 200.674 550.149 201.388C550.932 201.523 553.218 199.926 554.647 201.353C556.22 202.915 554.22 209 558.102 207.712C559.656 207.195 561.92 199.459 564.503 203.627C569.839 202.841 574.696 205.091 580.081 203.818C580.322 203.762 581.143 201.6 581.704 201.646C582.537 201.719 582.968 202.753 583.564 202.837C586.077 203.215 588.364 202.4 590.781 202.593C591.698 202.663 591.352 203.712 592.449 203.796C593.546 203.879 594.293 202.504 595.759 203.206C596.864 203.741 597.928 206.605 599.414 206.965C599.525 204.162 600.544 204.239 602.363 203.53C602.713 203.392 602.357 202.41 602.523 202.295C603.2 201.803 603.807 202.622 604.452 202.085C604.609 201.956 604.632 200.999 604.761 200.839C605.857 199.446 607.606 201.626 607.901 202.005C609.044 203.445 609.605 202.207 610.492 202.78C611.378 203.352 610.033 204.036 611.073 204.389C613.232 205.121 616.02 204.996 618.215 205.06C619.093 205.079 618.505 203.796 618.631 203.769C620.446 203.461 622.284 204.834 623.299 202.295C624.511 208.886 624.394 201.665 626.977 202.997C627.181 203.104 627.426 206.219 626.637 206.672C625.849 207.124 624.665 206.144 623.573 206.849C623.315 207.015 621.82 209.921 621.613 210.096C620.016 211.465 619.831 206.811 619.749 206.555C618.824 203.79 616.993 206.915 616.516 207.128C614.341 208.101 612.481 207.425 610.655 208.112C609.459 208.556 609.302 211.601 608.369 211.495C605.259 211.143 604.232 206.875 601.246 210.51C600.603 211.285 601.178 214.627 598.96 211.967C598.82 211.799 597.189 209.372 596.192 210.867C596.067 211.055 596.051 212.026 595.889 212.104C594.804 212.609 594.105 211.821 592.932 212.166C591.75 212.51 590.322 213.029 588.993 212.667C588.192 212.451 587.207 210.617 586.835 210.164C585.789 208.861 584.557 210.92 583.925 209.357C583.288 207.787 584.68 205.467 582.929 204.415C582.792 206.934 582.566 209.517 582.388 212.049C578.493 211.849 574.649 210.908 570.736 210.877C570.247 210.875 570.697 212.249 570.171 212.282C567.948 212.415 566.079 211.375 563.777 211.664C561.987 211.893 559.983 213.242 558.125 213.518C557.134 210.584 554.321 211.43 552.352 211.064C551.662 210.938 551.748 210.17 551.268 209.893C549.442 208.866 550.184 211.458 549.646 211.832C547.337 213.422 547.465 207.649 544.882 207.642C544.755 207.641 542.875 210.611 542.631 210.788C541.075 211.945 542.45 209.705 541.54 209.421C539.876 208.902 538.788 208.097 536.738 208.864C536.142 209.092 534.622 210.911 533.61 209.353C533.476 209.148 533.629 208.14 533.515 208.072C531.456 206.931 531.173 210.113 529.854 211.101C528.535 212.088 526.809 209.742 526.479 209.078C525.606 207.36 527.301 208.438 527.369 208.281C528.156 206.415 526.755 206.639 525.726 206.394C525.83 203.259 524.338 203.327 524.647 206.151C524.685 206.459 525.531 206.235 525.726 206.394C524.57 209.385 522.873 209.643 521.338 206.628C520.62 205.214 521.542 203.721 518.972 204.071C517.789 204.225 518.043 206.414 516.966 206.906C514.508 208.029 511.679 205.732 509.247 205.798C508.367 205.822 509.09 207.085 508.484 207.141C506.891 207.296 505.558 206.26 503.922 206.533C503.773 206.559 503.987 207.827 503.49 207.787C499.738 207.504 496.575 206.319 492.619 205.761C490.753 205.501 487.215 205.68 485.297 205.242C481.896 204.49 478.003 202.003 475.06 201.894C473.1 201.809 473.281 203.099 472.3 203.768C470.403 205.066 468.183 201.614 467.906 201.088C467.896 201.072 469.605 201.135 468.857 200.328C468.622 198.927 467.927 201.087 467.906 201.088C467.711 200.753 464.548 199.762 463.82 199.827C463.436 199.869 463.366 201.056 463.17 201.056C458.557 201.043 453.981 200.128 449.622 198.131C449.551 198.083 450.076 196.876 449.904 196.779C448.076 195.696 446.23 195.986 444.387 196.213C443.861 196.264 443.33 196.306 442.789 196.31C440.29 196.343 438.581 195.233 438.313 192.624C436.557 192.126 434.747 190.074 433.751 188.813C432.8 187.582 431.316 189.652 431.168 189.626C426.729 188.802 425.348 186.102 422.037 182.809C420.415 181.234 417.001 177.982 415.266 175.6C413.885 173.777 413.758 172.205 412.604 170.215C412.451 169.941 411.489 170.621 411.416 170.546C409.231 168.282 412.333 168.757 412.645 168.101C413.918 165.692 414.547 164.688 413.75 161.323C413.547 160.678 409.876 157.54 410.256 155.543C410.73 153.17 411.74 154.505 412.428 152.189C412.502 151.997 411.658 151.618 412.467 150.302C416.356 144.107 422.828 141.058 427.979 139.519C428.69 139.309 427.379 138.215 428.438 137.892C430.856 137.183 433.239 136.819 435.623 136.754C438.177 136.687 440.594 136.989 442.61 137.538C443.57 137.804 442.851 138.717 443.029 139.029C444.054 140.909 446.104 138.637 446.408 138.64C453.397 138.616 457.325 142.282 463.484 143.26C463.821 143.306 467.215 141.621 467.448 144.239C467.47 144.415 467.637 147.061 469.161 145.893C469.256 145.82 469.063 144.407 470.15 144.976C471.231 145.542 473.366 145.521 474.36 147.424C474.68 148.027 474.85 150.712 477.031 149.575C477.169 149.488 481.128 146.5 480.679 149.581C480.603 150.087 479.171 152.909 481.502 152.188C481.95 152.047 481.665 151.141 482.688 151.125C484.258 151.097 485.593 152.653 487.747 152.113C488.126 152.016 490.213 150.628 490.429 152.539C490.463 152.839 489.731 153.66 490.17 154C492.234 155.618 494.948 156.153 496.924 157.931C497.632 158.563 496.465 159.894 497.11 160.718C497.75 161.54 499.258 162.767 500.488 162.498C501.71 162.225 501.949 159.314 503.344 159.751C506.664 160.788 509.638 162.485 512.338 164.074C514.606 165.404 516.823 166.709 518.715 167.391C519.303 167.599 519.13 166.543 519.891 166.725C520.46 166.867 521.114 166.858 520.667 166.772C520.429 166.749 519.832 166.693 518.644 167.025C517.485 167.323 515.718 168.306 514.661 169.462C513.573 170.611 513.196 171.532 513.071 171.888C512.949 172.266 513.032 172.219 513.139 171.994C513.368 171.527 513.731 170.427 514.185 169.428C514.397 168.865 514.634 168.347 514.897 167.881C517.072 164.147 517.651 169.234 518.727 166.381C519.248 165.015 516.372 163.017 516.334 162.646C515.901 159.153 517.724 157.178 517.884 154.247C517.917 153.645 516.542 153.959 516.584 153.449C516.719 151.699 517.657 150.051 517.899 148.429C518.003 147.708 517.017 147.632 517.233 146.993C517.74 145.45 518.438 144.179 519.66 142.864C519.771 142.745 520.764 143.924 521.054 142.795C521.52 140.961 522.893 138.86 522.404 136.581C522.255 135.902 520.068 135.428 521.849 134.41C522.22 134.196 524.79 135.072 522.814 133.072C522.49 132.727 519.902 129.577 522.109 128.691C522.692 128.456 525.01 127.983 524.796 127.182C524.758 127.074 523.505 127.268 523.493 126.643C523.468 124.44 523.94 122.226 523.857 120.01C523.832 119.419 522.484 120.112 522.485 119.242C522.483 116.853 523.104 113.994 523.662 111.761C523.87 110.938 524.855 111.59 524.972 111.538C526.865 110.678 524.441 109.926 524.317 109.601C523.574 107.549 524.78 106.081 524.493 104.239C524.416 103.734 523.239 104.083 523.135 103.982C522.116 102.954 524.223 103.725 524.456 103.069C525.111 101.225 524.952 99.1667 524.682 97.3465C524.58 96.6783 523.273 97.5215 523.196 96.9285C522.715 93.4335 522.361 89.9081 522.392 86.4749C522.399 85.8267 523.508 85.9915 523.713 85.8108C525.065 84.6133 522.892 83.8213 522.387 83.5507C522.355 83.5354 522.33 83.5215 522.313 83.5089C521.04 82.5901 521.795 81.901 521.287 80.9386C518.864 76.3299 516.021 71.0631 512.509 67.4452C508.032 62.8036 503.443 59.2268 496.622 57.1009C496.186 56.9681 496.169 58.4357 495.792 58.3409C495.186 58.1815 494.586 58.0185 493.972 57.8495C489.763 56.6945 485.342 55.3638 480.609 54.9664C480.167 54.9276 480.589 56.3323 479.877 56.3158C478.414 56.2911 476.601 55.9707 475.175 55.3759C474.477 55.088 475.582 54.0762 474.872 53.8096C473.216 53.1874 471.372 52.9089 469.579 52.973C468.817 53.0039 469.841 54.4443 468.865 54.381C462.204 53.9922 455.661 54.0664 448.854 52.5459C448.392 52.4423 447.875 49.7094 446.896 50.2823C446.857 51.0479 446.903 51.944 446.91 52.76C442.477 53.1764 438.026 53.4804 434.15 53.9912C431.909 54.2754 429.778 54.7381 428.984 54.9992C428.598 55.0906 428.741 55.1338 429.502 54.2708C430.298 53.4618 431.061 51.3369 430.999 50.5378C431.004 50.2755 432.446 50.8177 432.453 50.2607C432.418 49.4409 432.393 49.7379 432.61 50.3348C432.812 50.9465 433.17 51.8955 433.554 52.9815C434.135 54.625 434.7 56.4612 435.047 58.5279C435.13 59.003 432.734 59.9535 433.72 61.0196C433.892 61.206 435.186 62.9292 435.94 63.1499C436.049 63.1759 436.919 62.2685 437.274 62.8549C439.321 66.2687 441.202 70.1081 442.646 74.029C442.879 74.6643 441.421 74.6947 441.577 75.1538C442.694 78.4009 445.413 81.0731 446.091 84.4572C446.542 86.7264 444.239 87.1661 442.977 89.2754C442.799 89.5733 443.454 90.7589 442.409 91.4675C439.783 93.2527 436.468 94.4762 433.709 96.4455C433.114 96.8689 434.719 98.0208 432.659 98.005C432.519 98.0013 431.342 97.1736 430.663 97.202C430.193 97.2205 429.303 98.2291 428.613 98.1054C427.923 97.9815 428.584 96.9936 427.659 96.656C426.726 96.3215 425.648 97.3608 424.713 96.1335ZM429.635 183.026C429.3 181.27 426.423 184.72 428.29 184.753C428.383 184.749 429.656 183.114 429.635 183.026ZM574.793 207.522C573.285 205.491 572.11 208.36 573.166 209.927C574.225 211.491 575.254 208.138 574.793 207.522ZM591.189 206.542C589.381 204.939 588.936 211.291 590.947 210.053C591.064 209.983 591.295 206.635 591.189 206.542ZM439.686 84.9766C439.643 85.0209 440.092 85.8858 440.154 85.8748C441.642 85.5879 440.747 83.8627 439.686 84.9766ZM607.434 205.272C606.87 204.404 605.197 205.372 605.896 206.453C606.46 207.323 608.136 206.353 607.434 205.272ZM457.275 153.389C457.272 153.458 457.921 153.741 458.03 153.379C458.378 152.211 457.327 152.22 457.275 153.389ZM634.968 205.416C630.895 205.168 628.464 199.902 632.876 200.51C633.676 200.619 631.146 202.18 632.163 202.657C634.027 203.526 635.273 200.229 637.178 201.999C637.524 202.323 635.2 205.442 634.961 205.423C634.963 205.421 634.965 205.419 634.968 205.416ZM432.214 178.239C432.225 178.176 431.478 177.542 431.428 177.574C430.12 178.37 431.674 179.69 432.214 178.239ZM493.394 172.282C493.387 172.419 495.348 173.508 495.469 173.437C497.54 171.856 493.574 169.647 493.394 172.282ZM494.381 193.55C495.606 192.27 496.888 192.268 497.475 194.158C496.464 193.931 495.401 193.777 494.381 193.55Z" fill="#E22A0A"/>
</svg>
